<?xml version="1.0" encoding="utf-8"?>
<!-- Generator: Adobe Illustrator 28.3.0, SVG Export Plug-In . SVG Version: 6.00 Build 0)  -->
<svg version="1.1" id="Layer_1" xmlns="http://www.w3.org/2000/svg" xmlns:xlink="http://www.w3.org/1999/xlink" x="0px" y="0px"
	 viewBox="0 0 182.5 104.4" style="enable-background:new 0 0 182.5 104.4;" xml:space="preserve">
<style type="text/css">
	.st0{fill:#E11D48;}
</style>
<g>
	<g>
		<g>
			<g>
				<g>
					<g>
						<g>
							<g>
								<g>
									<g id="surface254">
										<path class="st0" d="M16.3,44l5.9,6.4l6.9-6.5l-6.7-6.2H22l-5.3,5.7L11,37.2h-0.4L4,43.3v0.3l6.8,6.4L16.3,44z M26.2,66.1
											c7.3-3.8,3.8-13.7,2.8-15.9h-0.5c-3.1,3.9-5.3,3-11.1,3C9.8,53.2,3,60.4,3,69.1v5.5c0,5.4,5.1,9.8,11.4,9.8h5.5
											C30.8,84.3,33.8,70.8,26.2,66.1L26.2,66.1z M23.3,71.4H8.6c-0.8,0-1.5-0.7-1.5-1.5c0-5.2,7.6-0.6,15.6-2.6
											C25.3,69.6,24.4,71.4,23.3,71.4L23.3,71.4z M36.3,103.2C46.9,101.4,49,92.8,49,84.3h2.5V71.4h-3.7c-3,0-4.5,2.5-4,5.6
											c1,6-2.1,13.6-12.2,13.6h-2.8l-0.4,0.6C32.5,103.2,32.6,103.9,36.3,103.2L36.3,103.2z M75.6,17.7l20.3-11
											c0.8-0.4,1.4-1.1,1.4-2.1V1.4L77,12.4c-0.8,0.4-1.4,1.1-1.4,2.1V17.7z M93.2,31.5l-6.3-6.8h-0.4l-6.2,6.2v0.2l6.1,6.4
											L93.2,31.5z M86,43.9l6.9,6.5l6.4-7l-6.2-5.7h-0.5L87,42.9l-6.2-6.1h-0.5l-6.1,6v0.3l5.9,6.3L86,43.9z M108.6,71.4
											c-0.9,0-1.5-0.7-1.5-1.5V54.3l-0.8-0.7l-5.9,5c-2,1.7-2.2,4.3-0.7,6.6c3.6,5.6,3.6,6.2-5.2,6.2c-5.2,0-4.7-1.5-4.7-13.5
											L89,57.3l-5.6,5c-1.9,1.8-2.1,4.5-0.5,6.7c2.4,3.3,1.8,2.5-8.3,2.5c-4.7,0-6.3-1.4-6.5-11.2l-0.8-0.9l-5.1,5
											c-1.7,1.7-1.2,3.8-0.2,6.2c0.3,0.8-0.3,0.9-1.7,0.9H50c-2,0-3.5,1.5-3.5,3.5v6c0,2,1.5,3.5,3.5,3.5h7.1
											c4.5,0,6.6-0.5,8.9-3.6c3.9,3.6,7.4,3.6,10.7,3.6c3.3,0,6.3-1.2,8.7-3.3c2.3,2.1,5.3,3.3,8.7,3.3c3.6,0,6.9-1.5,9.2-3.8
											c1.7,2.3,4.2,3.7,7.7,3.8h1.3V71.4H108.6z M111.9,47.1l20.3-11c0.8-0.4,1.4-1.1,1.4-2.1v-3.1l-20.3,11
											c-0.8,0.4-1.4,1.1-1.4,2.1L111.9,47.1L111.9,47.1z M134.7,71.4V55.2l-1.1-0.7l-6.2,4.7c-2.1,1.5-2.5,4.3-0.9,6.4
											c2.9,3.9,5.9,5.7,3.2,5.9h-0.8c-8.9-0.3-12,0.1-18,0c-2,0-3.5,1.5-3.5,3.5v6c0,2,1.5,3.5,3.5,3.5c3.6,0,7.2-0.1,10.8,0
											c3.3,0.1,6.4-1.2,8.7-3.2c2.3,2,5.3,3.2,8.6,3.2h1.2V71.4H134.7z M121.6,87.3l-6.3,6.3v0.2l6.4,6.4l6.5-6.5l-6.3-6.4
											H121.6z M138.7,84.3h4.9c10.7,0,12.9-7,12.9-17.4V47.6c0.2-3.4,2.2-5.4,4.4-7.1l0.3-1.2c-2.2-4.1-4.1-9.1-4.6-14.4
											l-0.9-0.4l-4.6,3.4c-3.8,2.9-4.6,7.1-3.7,11.7c1.9,9.5,3,25,3,30.2c0,0.8-0.6,1.5-1.5,1.5h-10.1c-2,0-3.5,1.5-3.5,3.5v5.9
											C135.2,82.9,136.7,84.3,138.7,84.3L138.7,84.3z M170.4,87.4c2.9-2.3,4.3-5.5,4.2-9.2c-0.3-9.1,0.1-22.4,0.6-30.6
											c0.2-3.4,2.1-5.5,4.3-7.2l0.3-0.8c-2.2-4-3.2-8.9-3.6-14.2l-1.3-0.5l-4.5,3.3c-3.6,2.8-4,6.6-3.3,11.1
											c0.5,3.7,0.4,7.8,0.4,10.1c0.2,26.6,0,34.3,2.2,37.8L170.4,87.4z"/>
									</g>
								</g>
							</g>
						</g>
					</g>
				</g>
			</g>
		</g>
	</g>
</g>
</svg>
