<?xml version="1.0" encoding="UTF-8"?>
<svg id="Layer_1" data-name="Layer 1" xmlns="http://www.w3.org/2000/svg" viewBox="0 0 432 432">
  <defs>
    <style>
      .cls-1 {
        fill: #d3d3d3;
        stroke-width: .75px;
      }

      .cls-1, .cls-2, .cls-3, .cls-4, .cls-5, .cls-6, .cls-7, .cls-8, .cls-9, .cls-10, .cls-11, .cls-12, .cls-13 {
        stroke: #171714;
        stroke-miterlimit: 10;
      }

      .cls-2 {
        fill: #334155;
      }

      .cls-2, .cls-4, .cls-5, .cls-6, .cls-7, .cls-8, .cls-9, .cls-10, .cls-11, .cls-12, .cls-13 {
        stroke-width: .5px;
      }

      .cls-14, .cls-15, .cls-16, .cls-17, .cls-18, .cls-19, .cls-20, .cls-21 {
        stroke-width: 0px;
      }

      .cls-14, .cls-7 {
        fill: #10b981;
      }

      .cls-3, .cls-15 {
        fill: #000;
      }

      .cls-4 {
        fill: #fbcd73;
      }

      .cls-5 {
        fill: #998589;
      }

      .cls-6, .cls-17 {
        fill: #f43f5e;
      }

      .cls-16 {
        fill: #ffccaf;
      }

      .cls-18, .cls-12 {
        fill: #fecdd3;
      }

      .cls-19 {
        fill: #ff9280;
      }

      .cls-20, .cls-13 {
        fill: #6b434c;
      }

      .cls-8 {
        fill: #3f272e;
      }

      .cls-9 {
        fill: #e68647;
      }

      .cls-10 {
        fill: #020617;
      }

      .cls-11 {
        fill: #bcbcbc;
      }

      .cls-21 {
        fill: #fff;
      }
    </style>
  </defs>
  <rect class="cls-21" width="432" height="432"/>
  <g>
    <g>
      <path class="cls-14" d="M79.46,144.48s2.18,21.7,4.55,32.36c2.01,9.06,5.88,18.1,12.51,24.59,4.91,4.81,14.33,14.71,14.33,14.71,0,0-5.34-27.87-12.2-39.3-3.5-5.83-5.22-9.68-8.31-14.37-3.85-5.84-10.88-17.99-10.88-17.99Z"/>
      <path class="cls-14" d="M80.45,237.08c1.85,6.54,3.53,11.98,7.39,18.75,9.9,17.4,24.49,31.69,42.32,40.8l.23-.17c-8.93-12.09-17.25-24.57-24.39-37.52,0,0,0-.02-.01-.03-.59-1.07-1.17-2.14-1.74-3.22-6.09-10-13.37-10.03-23.79-18.6Z"/>
      <path class="cls-14" d="M83.99,200.64c2.16,10.1,5.07,20.05,8.71,29.72,3.26,8.65,7.15,17.08,11.54,25.32.59.97,1.17,2.04,1.74,3.22,0,0,0,.02.01.03,7.14,12.95,15.46,25.43,24.39,37.52,13.26,17.96,27.86,35.06,41.92,51.57h0c-3.02-6.2-5.63-12.64-7.54-19.26h0c-20.18-40.71-52.26-92.76-80.79-128.12Z"/>
      <path class="cls-17" d="M104.05,315.03c-.1,1.33-1.41,2.42-1.27,3.75.08.78.68,1.43,1.37,1.79.7.36,1.48.49,2.26.61.85.13.55.09,1.4.22h.21c0-.31.06-.62.22-.94.23-.45.61-.79,1.06-1.02.63-.32,1.44-.52,2.14-.29.35.11.67.32,1.04.36h0c.49.04.71-.58.34-.9-1-.87-1.65-2.15-1.74-3.48-.03-.41-.02-.81.04-1.19h-.02c-.59.29-1.27-.14-1.77-.57-.96-.82-1.89-1.73-2.49-2.85-.38-.72-.61-1.55-.6-2.36h-.02c-.54.5-.74,1.01-1.28,1.51-.63.58-1.3,1.23-1.43,2.08-.17,1.1.61,2.16.53,3.27Z"/>
      <path class="cls-18" d="M106.26,308.17c-.01.81.22,1.64.6,2.36.6,1.12,1.52,2.03,2.49,2.85.5.43,1.18.86,1.77.57h.02c.14-1.02.59-1.94,1.39-2.68l.14-.03c-.64-1.15-.73-2.55-.51-3.85.22-1.32,1.25-3.11,2.26-3.98.33-.29.64-.57.95-.8.8-.57,1.36-1.44,1.55-2.41,0-.01,0-.03,0-.04.21-.97.78-1.76,1.53-2.27l-.09-.13c-1.45-.17-4.45-.6-5.88-.32-1.44.28-2.85,1.08-3.48,2.4-.67,1.39-.39,3.09-1.01,4.5-.4.9-1.13,1.61-1.5,2.52-.17.42-.25.86-.25,1.31Z"/>
      <path class="cls-17" d="M108.25,320.47c-.16.32-.23.63-.22.93.02,1.17,1.17,2.2,2.34,2.59,1.84.62,3.85.32,5.76.02,2-.32,4-.63,6-.95,1.02-.16,2.08-.33,2.97-.86,1.75-1.05,2.47-3.19,3.02-5.15.34-1.21.64-2.59.24-3.71h-.16c-1.81-.41-3.36-.6-5.18-.22-1.81.38-3.64.84-5.5.74-1.85-.11-3.78-.89-4.75-2.47-.03-.05-.06-.1-.09-.15l-.14.03c-.81.74-1.25,1.66-1.39,2.69-.05.38-.06.78-.04,1.19.09,1.33.74,2.6,1.74,3.48.37.32.14.94-.34.9h0c-.37-.04-.69-.25-1.04-.36-.71-.22-1.51-.02-2.14.29-.45.22-.83.57-1.06,1.02Z"/>
      <path class="cls-17" d="M127.88,312.5h0c-.62-1.42-.71-3.04-.91-4.59-.26-1.92-.73-3.81-1.4-5.63-.68-1.84-1.67-3.71-3.39-4.63-1.24-.66-2.65-.49-3.7.23-.75.51-1.32,1.3-1.53,2.27,0,.01,0,.03,0,.04-.19.97-.75,1.83-1.55,2.41-.31.22-.62.51-.95.8-1.01.87-2.04,2.66-2.26,3.98-.22,1.3-.13,2.7.51,3.85.03.05.06.1.09.15.97,1.58,2.9,2.36,4.75,2.47,1.85.1,3.68-.36,5.5-.74,1.81-.38,3.37-.19,5.18.22h.16c-.1-.3-.26-.58-.47-.83Z"/>
      <path class="cls-17" d="M115.2,212.18c-.26,3.26.93,6.61,3.2,8.97,1.56,1.63,4.27,2.76,6.23,3.87,1.03-1.3,1.26-3.86,1.07-5.5-.19-1.61-.99-3.11-1.11-4.72-.05-.64.08-1.34.35-1.94-1.03-.07-2.4-.48-3.47-1.09-.49-.28-.92-.61-1.23-.96-.65-.75-1.2-1.72-2.16-1.95-.28-.06-.56-.05-.83.02-.53.13-1.01.49-1.33.94-.48.68-.65,1.53-.72,2.37Z"/>
      <path class="cls-18" d="M116.62,366.65c-.15,2.25,2.71,3.99,2.28,6.21-.1.5-.36.96-.53,1.45-.5,1.52.11,3.27,1.26,4.39,1.15,1.12,2.74,1.69,4.33,1.91,1.63.22,2.78.1,4.28.75-1.34-2.62-4.24-4.43-4.78-7.33-.43-2.34.87-4.69,2.59-6.34.65-.62,1.35-1.17,2.07-1.69l-.43-.32c-2.09-.24-3.96-1.79-4.6-3.79-.39-1.21-.34-2.53-.76-3.74-.04-.13-.1-.26-.15-.4h-.35c-.38,2-1.35,3.87-2.75,5.33-1.03,1.07-2.37,2.1-2.47,3.58Z"/>
      <path class="cls-18" d="M117.25,208.87c.27-.07.55-.08.83-.02.96.22,1.51,1.2,2.16,1.95.31.35.74.68,1.23.96-.25-1.36.69-2.69,1.78-3.51-.34-.88-2-1.4-2.93-1.27-.94.12-2.64.71-3.07,1.9Z"/>
      <path class="cls-18" d="M120.93,353.02c-.65,1.56.6,3.14,1.25,4.73.05.13.11.27.15.4.41,1.2.37,2.52.76,3.74.64,2,2.51,3.55,4.6,3.79l.43.32c1.2-.87,2.47-1.68,3.62-2.62.49-.4.97-.84,1.3-1.38.75-1.25.57-2.8.71-4.25.31-3.19,2.43-6.13,5.35-7.45.14-.06.29-.13.44-.18.82-.33,1.66-.59,2.4-1.06,1.15-.73,1.99-1.95,2.24-3.29.28-1.47-.1-3.01.21-4.47.78-3.61,5.3-5.19,6.8-8.53l-.45-.19c-2.8,2.01-6.06,3.39-9.45,4.01-1.53.27-3.09.4-4.58.82-3.49.99-6.46,3.68-7.78,7.07-.56,1.44-.86,3.04-1.85,4.22-1,1.19-2.52,1.78-3.93,2.44-.9.43-1.84.97-2.23,1.89Z"/>
      <path class="cls-18" d="M123.24,208.25c-1.09.83-2.03,2.15-1.78,3.51,1.08.62,2.45,1.03,3.47,1.09.41-.91,1.16-1.6,2.13-1.58,1.22.02,2.15,1.13,3.33,1.45,1.82.49,3.79-1.01,5.58-.39.11.04.21.08.31.13-.48-1.37-1.71-2.61-3.14-2.91-.74-.16-1.51-.11-2.27-.14-2.07-.07-4.09-1.93-5.56-2.02-.56-.03-1.35.3-2.08.85Z"/>
      <path class="cls-17" d="M126.05,367.69c-1.72,1.65-3.03,4-2.59,6.34.54,2.89,3.44,4.71,4.78,7.33.56,1.1.83,2.32,1.33,3.45.5,1.13,1.29,2.23,2.47,2.62,1.1.37,2.29.05,3.42-.19,2.78-.6,5.65-.73,8.47-.4,1.49.17,2.99.48,4.48.27,1.1-.15,2.15-.58,3.18-1,3.92-1.6,7.96-3.28,10.95-6.28.53-.53,1.04-1.11,1.7-1.47.49-.27,1.12-.47,1.41-.91-1-1.95-2.64-4.62-3.64-6.58-.46-.9-.93-1.81-1.59-2.58-1.3-1.5-3.23-2.3-5.14-2.86-2.31-.68-4.7-1.08-7.1-1.2-1.2-.06-2.41-.05-3.56-.39-2.53-.76-4.29-3.18-4.96-5.74-.67-2.56-.41-5.25-.06-7.87l-.04-.12c-.15.06-.3.12-.44.18-2.92,1.31-5.04,4.26-5.35,7.45-.14,1.45.04,3-.71,4.25-.33.54-.81.98-1.3,1.38-1.15.94-2.42,1.75-3.62,2.62-.72.52-1.42,1.07-2.07,1.69Z"/>
      <path class="cls-17" d="M124.94,212.86c-.27.6-.4,1.3-.35,1.94.12,1.61.92,3.11,1.11,4.72.19,1.65-.04,4.2-1.07,5.5,2.53,1.2,5.5.75,7.93-.63,2.44-1.38,4.2-3.8,5.04-6.47.32-1.03.52-2.13.3-3.18-.2-.94-.77-1.84-1.62-2.27-.1-.05-.2-.1-.31-.13-1.79-.62-3.75.88-5.58.39-1.18-.32-2.11-1.43-3.33-1.45-.97-.02-1.72.68-2.13,1.58Z"/>
      <path class="cls-14" d="M131.28,388.51c4.74,4.75,9.48,9.5,14.23,14.24,1.93,1.94,3.88,3.88,6.11,5.46,2.26,1.59,4.77,2.78,7.27,3.96,11.58,5.47,23.15,10.94,34.73,16.41-.01-.03-.03-.06-.05-.09-.25-.49-.51-.97-.77-1.45-1.15-2.09-2.43-4.11-3.82-6.04-1.25-1.74-2.61-3.42-4.16-4.91-1.24-1.19-2.6-2.26-3.99-3.27-14.89-10.87-33.03-16.12-49.54-24.32Z"/>
      <path class="cls-17" d="M139.58,350.23c-.35,2.62-.6,5.31.06,7.87.67,2.55,2.43,4.97,4.96,5.74,1.15.35,2.36.34,3.56.39,2.41.11,4.8.52,7.1,1.2,1.91.56,3.84,1.36,5.14,2.86.66.77,1.13,1.67,1.59,2.58,1,1.95,2.64,4.62,3.64,6.58.05-.08.1-.16.13-.26.93-4.05,1.91-9.27,2.12-13.41.08-1.66.11-3.33-.11-4.97-.73-5.37-4-10.01-7.17-14.41-2.9-4.02-5.8-8.04-8.7-12.06l-.61.18c-.03.09-.07.17-.11.25-1.5,3.34-6.01,4.92-6.8,8.53-.32,1.46.07,3-.21,4.47-.26,1.34-1.09,2.56-2.24,3.29-.74.47-1.59.73-2.4,1.06l.04.12Z"/>
      <path class="cls-14" d="M143.22,229.47c.54,17.1,3.22,35.35,7.27,52.86,0,.01,0,.03,0,.04.05.18.09.37.13.55,0,.04.02.08.03.12,3.55,15.19,8.14,29.79,13.27,42.56-1.08-4.29-1.86-8.65-2.26-13.06-.3-3.33-.32-6.74-.07-10.17h0c-2.51-23.65-9.89-50.69-18.37-72.91Z"/>
      <path class="cls-17" d="M158.97,256.06l.06.07c4.98,4.4,11.1,7.93,17.32,10.27-.06,6.78-.12,14.27-.18,21.05l-.13.06c.2.45.39.9.59,1.35,2.13,4.87,4.27,9.81,5.17,15.05.14.79.24,1.58.32,2.37h.06c.06-8.81.13-22.54.19-31.35.03-4.82-.06-10.58,1.58-15.11-2.38-.5-6.69-1.41-8.86-2.5-.97-.49-1.88-1.08-2.77-1.7-2.49-1.73-4.85-3.66-7.03-5.77h-.04s0,0,0,0c-2.35,2.13-4.04,4.33-6.29,6.21Z"/>
      <path class="cls-14" d="M161.59,302.38c-.25,3.42-.23,6.83.07,10.17.4,4.41,1.17,8.77,2.26,13.06,0,0,0,0,0,0,.26,1.05.55,2.1.85,3.15,1.91,6.62,4.51,13.06,7.54,19.26.21.44.43.87.65,1.31,1.43-5.05,3.7-11.31,5.13-16.36.3-1.05.59-2.1.88-3.16h0c1.49-5.41,2.83-10.91,3.23-16.43.17-2.37.17-4.74-.07-7.11-.08-.79-.19-1.58-.32-2.37-.9-5.24-3.05-10.17-5.17-15.05-.2-.45-.39-.9-.59-1.35-1.88-4.32-3.77-8.63-5.65-12.95h-.27c-4.92,8.19-7.83,18.04-8.53,27.81h0Z"/>
      <path class="cls-16" d="M207.13,215.71c2.02,1.11,4.12,2.08,6.28,2.9,3.12,1.18,6.46,2.05,9.76,1.6,3.81-.52,7.19-2.74,10.09-5.27,2.76-2.41,5.22-5.14,7.46-8.04,8.92-11.53,14.29-25.76,15.21-40.3.27-4.25-1.92-11.74-3.85-15.53-2.86-5.63-8.81-9.76-14.85-11.61-7.47-2.29-14.67-2.73-22.13-5.02-14.3-4.4-18.4-6.69-26.28-18.8,1.66,6.59,2.11,13.3.56,19.97-.77,3.32-2.12,6.65-4.7,8.87-2.58,2.22-6.62,2.99-9.43,1.07-1.05-.72-1.88-1.77-3.05-2.28-2.23-.98-4.93.44-6.21,2.5-1.28,2.07-1.51,4.6-1.7,7.03-.29,3.67-.3,6.88,1.59,10.04.95,1.59,2.14,3.58,3.13,5.15,1.46,2.33,1.86,5.14,2.16,7.87,2.47,22.02.71,46.19-4.42,68.05-.47,2-.96,3.97-1.49,5.93h.04c2.19,2.12,4.54,4.05,7.03,5.78.89.62,1.8,1.21,2.77,1.7,2.17,1.09,6.49,2,8.86,2.5-1.64,4.53-1.55,10.29-1.58,15.11-.06,8.8-.13,22.54-.19,31.34h-.06c.24,2.37.24,4.74.07,7.11h.12c.79,7.95,2.36,17.61,3.16,25.55,3.92-22.08,3.61-44.67,5.02-67.06.23-3.59.55-7.33,2.43-10.39v-.05c3.22-.18,5.91-2.16,8.41-4.21,2.54-2.08,4.84-4.45,6.84-7.04-2.15-4.66-4-10.43-4.23-14.71-.36-6.48.92-13.69,3.19-19.77Z"/>
      <path class="cls-17" d="M178.97,329.81h0c.03.62.13,2.98.16,3.59.28,5.66.54,11.21,1.34,16.82.22-.04,3.35-.07,4.32-.05,1.92.03,3.34.04,5.26.16v-.11c1.81-21.91,5.22-44.03,8.63-65.76.9-5.73.97-12.4,1.87-18.13,1.13-.56,2.21-1.21,3.29-1.87,1.45-.88,2.9-1.77,4.35-2.65.9-.55,1.6-1.13,2.43-1.79,1.06-.83,2.19-1.79,3.11-2.77,1.1-1.18,2.21-2.36,3.31-3.54-2.94-.66-6.17-2.02-8.86-3.53-2.01,2.59-4.31,4.96-6.84,7.04-2.49,2.04-5.19,4.03-8.41,4.21v.05c-1.88,3.06-2.2,6.8-2.43,10.39-1.41,22.39-1.1,44.97-5.02,67.06-.8-7.94-2.36-17.59-3.16-25.54h-.12c-.4,5.5-1.74,11.01-3.23,16.42Z"/>
      <path class="cls-19" d="M179.46,93.51l1.89,3.49c-.61-1.17-1.24-2.34-1.89-3.49Z"/>
      <path class="cls-19" d="M181.35,97l1.15,2.25,1.19,2.46c-.75-1.59-1.53-3.16-2.35-4.71Z"/>
      <path class="cls-19" d="M183.69,101.71l1.3,2.87c-.42-.96-.85-1.92-1.3-2.87Z"/>
      <path class="cls-19" d="M184.99,104.58l1.55,3.84c-.48-1.29-1-2.57-1.55-3.84Z"/>
      <path class="cls-19" d="M186.54,108.42l1.14,3.25c-.35-1.09-.73-2.17-1.14-3.25Z"/>
      <path class="cls-19" d="M187.73,111.83l1.08,3.78c-.32-1.26-.68-2.52-1.08-3.78Z"/>
      <path class="cls-17" d="M190.58,393.32s.01,0,.02-.02c2.56-2.64,6.19-4.1,9.86-4.33,2.12-.13,4.26.18,6.36-.13.7-.1,1.45-.31,1.89-.87.48-.62.46-1.5.19-2.24-.07-.18-.14-.36-.23-.54-.26-.52-.59-1.01-.86-1.54-.7-1.35-.98-2.9-.81-4.41.1-.83.33-1.67.12-2.48-.35-1.36-1.79-2.11-3.14-2.51-1.34-.4-2.82-.68-3.79-1.7-1.48-1.54-1.21-4.19-2.68-5.74-.68-.71-1.68-1-2.65-.91-1.09.1-2.14.67-2.65,1.65-.5.95-.5,2.07-.51,3.14-.04,3.79-.32,7.58-.82,11.34-.13.97-.28,1.95-.6,2.89-.22.66-.54,1.3-.66,1.98-.39,2.25,1.34,4.18.78,6.39.09-.06.12.06.18.02Z"/>
      <path class="cls-17" d="M190.6,393.3s-.01.01-.02.02c1.88-.32,4.68-.71,6.42.04,1.6.68,2.72,2.13,4.03,3.27,1.94,1.68,4.35,2.7,6.76,3.56,2.86,1.02,6.02,1.84,8.87.82.48-.17.97-.42,1.27-.84.44-.63.33-1.44,0-2.16-.1-.23-.23-.45-.36-.66-1.3-1.96-3.6-3.64-3.37-5.98.08-.82.48-1.66.18-2.43-.16-.43-.53-.75-.9-1.02-.05-.04-.11-.08-.16-.12-1.4-.99-2.88-1.87-4.43-2.61h-.22c.09.19.16.36.23.55.27.74.29,1.63-.19,2.24-.44.56-1.19.77-1.89.87-2.1.31-4.24,0-6.36.13-3.67.24-7.3,1.69-9.86,4.33Z"/>
      <path class="cls-14" d="M193.56,428.49s.03.06.05.09c.05.02.1.05.15.07l.14-.08c.54-.36,2.48-1.02,3.1-1.18,11.29-2.86,20.45-12.78,22.41-24.26h-.17c-.89,1.29-2.47,2.09-3.96,2.74-3.81,1.67-7.72,3.15-11.26,5.33-3.53,2.19-6.71,5.21-8.22,9.09-.78,2-1.49,4.36-1.85,6.59-.08.51-.15,1.02-.19,1.51l-.19.1Z"/>
      <path class="cls-17" d="M194.84,365.75v.17c.98-.09,1.99.2,2.66.91,1.47,1.55,1.2,4.2,2.68,5.74.97,1.01,2.45,1.29,3.79,1.7,1.34.41,2.79,1.15,3.14,2.51.21.81-.02,1.65-.12,2.48-.18,1.51.11,3.06.81,4.41.27.52.6,1.01.86,1.54h.22c1.55.73,3.03,1.61,4.43,2.6.05.04.11.08.16.12l.19-.42c1.23-2.11,3.83-3.33,6.23-2.92.29.05.58.12.86.22l.15-.7c1.42-2.18.11-5.15-1.78-6.94-1.89-1.78-4.32-2.97-5.93-5.01-1.77-2.24-2.49-5.42-4.95-6.86-.8-.47-1.71-.7-2.61-.93-1.49-.37-2.97-.75-4.46-1.12-.61-.15-1.23-.31-1.85-.25-.56.05-1.09.28-1.59.54-1.25.65-2,1.13-2.9,2.21Z"/>
      <path class="cls-21" d="M206.71,325.61l.58,2.61.67-.34c.57-.47,1.17-.86,1.8-1.2l-3.05-1.07Z"/>
      <path class="cls-17" d="M213.67,387.5l-.19.42c.38.28.74.59.9,1.02.3.77-.1,1.61-.18,2.43-.23,2.34,2.07,4.02,3.37,5.98.13.2.26.43.36.66h.6c.97.53,2.01.97,3.12,1.03,1.1.05,2.27-.34,2.93-1.23.63-.86.69-2.05.38-3.07-.31-1.02-.93-1.92-1.57-2.78-.61-.82-1.27-1.82-.9-2.77.09-.23.24-.44.34-.67.4-.86.15-1.93-.46-2.65-.42-.5-.99-.84-1.61-1.06-.28-.1-.57-.17-.86-.22-2.41-.41-5.01.81-6.23,2.92Z"/>
      <path class="cls-17" d="M235,257.13c.27.14.54.28.8.43-1.11-1.29-.67-1.83-.24-3.11.42-1.28,1.38-2.3,2.34-3.24,1.58-1.55,3.24-3.01,4.98-4.37,1.39-1.08,2.87-2.13,4.48-2.8h0c2.46-4.35-1.88-5.83-3.63-7.02-1.93-1.31-3.12-4.55-5.41-5.01-2.63-.53-4.58.41-7.17,1.1-1.99.53-3.13.31-5.14-.13-1.69-.37-2.71-2.88-5.32-1.72-2.12.94-2.92,3.52-1.87,5.59.79,1.55.99,2.87,1.64,4.49.87,2.17,1.29,4.51,2.23,6.65.93,2.12,3.81,7.09,12.32,9.15Z"/>
      <path class="cls-16" d="M266.41,388.39c-2.4-.95-6.13-1.49-11.38.31,0,0-13.93-7.15-16.44-5.72-.37.21-.42.59-.21,1.09l-.12.02c-2.68-2.03-7.33-5.91-10.88-9.56-2.86,3.9,8,14.3,13.27,18.98,6.54,5.81,12.21,11.27,24.99,9.41,31.61-4.6,40.58-35.18,40.89-36.29-.2-.02-.41-.05-.61-.08-4.65-.66-8.69-2.37-11.55-2.58l-.26-.09c-.95.01-1.27,1.27-1.32,2.22-.23,4.11-1,8.39-3.56,11.62-1.59,1.99-3.75,3.44-5.93,4.75-3.54,2.12-7.29,4-11.31,4.93-1.26.29-4.06.82-5.48.72l-.1.25Z"/>
      <path class="cls-18" d="M235.56,254.45c-.42,1.28-.87,1.82.24,3.11,6.55,3.54,12.67,8.45,17.61,13.99,2.27,2.55,4.37,5.3,7.11,7.34.92.68,1.93,1.27,3,1.72h0c2.11.89,4.43,1.21,6.6.54,3.26-1,5.69-4.82,4.37-7.97-.29-.69-.73-1.3-1.18-1.91-.62-.83-1.26-1.65-1.58-2.62-1.14-3.48,2.24-7.27,1.06-10.74-.98-2.88-4.48-3.89-7.49-4.36-3.01-.47-6.5-1.15-7.89-3.86-.56-1.09-.67-2.37-1.23-3.46-1.16-2.28-4.06-3.24-6.58-2.84-.78.12-1.54.35-2.26.65h0c-1.61.67-3.09,1.71-4.48,2.8-1.74,1.36-3.4,2.82-4.98,4.37-.96.94-1.91,1.96-2.34,3.24Z"/>
      <path class="cls-14" d="M270.12,281.15c-2.17.67-4.49.35-6.6-.54,2.47,4.16,7.37,11.02,7.37,11.02,24.28-13.62,44.81-35.02,53.89-61.34,0,0-38.87,24.4-51.45,40.98h0c.45.61.89,1.22,1.18,1.91,1.32,3.15-1.11,6.96-4.37,7.97Z"/>
      <path class="cls-14" d="M272.9,293.5c1.89,2.91,3.79,5.83,5.68,8.74l.08-.05c9.31-3.42,19.56-2.71,28.72-6.16,2.93-1.1,7.9-3.15,10.41-5.02,7.86-5.88,14.52-10.09,22.36-15.95-9.42,3.17-19.14,5.47-28.98,6.87-13.41,1.91-28.12,2.6-38.28,11.57Z"/>
      <path class="cls-17" d="M279.81,305.82v.07c5.2,6.95,10.11,15.7,12.79,23.95.28.85.77,1.88,1.66,1.85.35,0,.67-.2.97-.38,2.17-1.33,4.31-2.87,5.64-5.05,1.32-2.18,1.63-5.14.14-7.21-1.16-1.61-3.11-2.38-4.85-3.33-1.73-.95-3.49-2.42-3.59-4.4-.07-1.32.62-2.73.04-3.93-.53-1.11-1.89-1.49-3.09-1.75-1.37-.3-2.74-.6-4.12-.9-.72-.16-1.44-.31-2.17-.31-1.26,0-2.52.51-3.43,1.39Z"/>
    </g>
    <g>
      <path class="cls-3" d="M165.32,249.85c.52-1.94,1.02-3.93,1.49-5.93,5.26-22.41,6.83-46.59,4.42-68.07-.32-2.85-.73-5.6-2.17-7.9-.99-1.57-2.19-3.58-3.13-5.15-1.94-3.24-1.86-6.59-1.58-10.01.18-2.3.39-4.9,1.7-7,1.24-2,3.88-3.47,6.14-2.48.71.31,1.31.83,1.89,1.34.37.32.75.65,1.15.93,2.98,2.05,7.12.97,9.51-1.07,2.23-1.92,3.77-4.83,4.72-8.9,1.44-6.22,1.26-12.76-.56-20l-.12.03c1.81,7.22,2,13.74.56,19.94-.94,4.05-2.47,6.94-4.68,8.84-2.35,2.02-6.42,3.08-9.35,1.07-.4-.28-.78-.6-1.14-.92-.59-.51-1.19-1.04-1.92-1.36-2.32-1.02-5.02.49-6.29,2.53-1.32,2.13-1.53,4.75-1.71,7.06-.27,3.44-.36,6.81,1.6,10.08.94,1.57,2.14,3.58,3.13,5.15,1.43,2.28,1.84,5.01,2.15,7.85,2.4,21.47.83,45.63-4.42,68.03-.47,1.99-.97,3.99-1.49,5.93v.02s.12.01.12.01Z"/>
      <path class="cls-15" d="M188.76,115.62l.12-.03c-.3-1.21-.67-2.48-1.08-3.78-.01-.05-.03-.09-.05-.14l-.12.04s.03.09.04.14c.41,1.29.78,2.56,1.08,3.77Z"/>
      <path class="cls-3" d="M187.62,111.69l.12-.04c-.34-1.06-.73-2.16-1.14-3.25-.47-1.24-.99-2.54-1.55-3.84-.4-.93-.84-1.9-1.3-2.88-.71-1.52-1.5-3.11-2.35-4.71-.59-1.14-1.23-2.31-1.89-3.49-.8-1.44-1.65-2.93-2.62-4.57l-.11.06c.96,1.64,1.82,3.13,2.62,4.57.66,1.18,1.29,2.35,1.89,3.49.84,1.6,1.63,3.19,2.34,4.71.46.98.9,1.94,1.3,2.87.57,1.3,1.09,2.59,1.55,3.83.41,1.1.8,2.19,1.14,3.25Z"/>
      <path class="cls-15" d="M173.02,349.35c.72-2.53,1.66-5.42,2.57-8.21.91-2.77,1.84-5.63,2.56-8.15.35-1.24.63-2.24.88-3.16l-.12-.03c-.25.92-.53,1.92-.88,3.16-.71,2.51-1.65,5.38-2.55,8.14-.91,2.79-1.86,5.68-2.57,8.21l.12.03Z"/>
      <path class="cls-3" d="M179.03,329.83c1.44-5.22,2.82-10.83,3.23-16.44.18-2.53.16-4.85-.07-7.12-.08-.8-.19-1.6-.32-2.37-.91-5.27-3.08-10.25-5.18-15.06-.1-.22-.2-.45-.29-.67-.1-.22-.2-.45-.29-.67-.94-2.15-1.87-4.29-2.81-6.44-.95-2.17-1.89-4.34-2.84-6.51l-.11.05c.95,2.17,1.89,4.34,2.84,6.51.94,2.15,1.87,4.29,2.81,6.44.1.22.2.45.29.67.1.22.2.45.29.67,2.1,4.8,4.26,9.77,5.17,15.03.13.77.24,1.57.32,2.36.23,2.26.25,4.58.07,7.1-.41,5.6-1.79,11.2-3.23,16.41l.12.03Z"/>
      <path class="cls-3" d="M172.9,349.36l.11-.06c-.22-.44-.43-.87-.65-1.31-3.22-6.61-5.76-13.09-7.53-19.25-.3-1.03-.59-2.09-.85-3.14l-.12.03c.26,1.05.55,2.11.85,3.15,1.78,6.17,4.31,12.65,7.54,19.27.21.44.43.88.65,1.31Z"/>
      <path class="cls-3" d="M163.86,325.62l.12-.03c-1.12-4.42-1.87-8.81-2.25-13.05-.3-3.31-.32-6.73-.07-10.16h-.12c-.25,3.42-.23,6.85.07,10.17.38,4.24,1.14,8.64,2.26,13.07Z"/>
      <path class="cls-3" d="M161.66,302.38c.72-9.96,3.75-19.83,8.52-27.78l-.11-.06c-4.79,7.97-7.82,17.86-8.54,27.84h.12Z"/>
      <path class="cls-3" d="M161.53,302.38h.12c-2.31-21.84-9.01-48.42-18.38-72.94l-.12.04c9.36,24.51,16.06,51.08,18.37,72.89Z"/>
      <path class="cls-3" d="M163.87,325.64l.05-.02h.07v-.03c-5.2-12.93-9.78-27.64-13.27-42.55l-.12.03c3.49,14.91,8.07,29.63,13.26,42.56h0s0,.02,0,.02Z"/>
      <path class="cls-15" d="M150.57,282.94l.12-.03c-.02-.09-.04-.18-.06-.28-.02-.09-.04-.19-.07-.28l-.12.03c.02.09.04.19.07.28.02.09.04.18.06.27Z"/>
      <path class="cls-3" d="M150.43,282.34l.12-.03c-4.24-18.3-6.75-36.58-7.27-52.85h-.12c.52,16.28,3.03,34.57,7.27,52.87Z"/>
      <path class="cls-3" d="M164.72,328.79l.11-.06c-21.52-43.42-53.99-94.91-80.79-128.13l-.1.08c26.79,33.22,59.26,84.7,80.78,128.11Z"/>
      <path class="cls-3" d="M172.26,348.06l.09-.08-.86-1.01c-13.8-16.2-28.07-32.96-41.05-50.55-9.83-13.31-17.81-25.58-24.39-37.52l-.11.06c6.58,11.94,14.56,24.22,24.4,37.53,12.99,17.59,27.26,34.35,41.06,50.56l.86,1.01Z"/>
      <path class="cls-3" d="M105.93,258.93l.11-.06c-.56-1.01-1.13-2.07-1.74-3.22-4.54-8.53-8.42-17.05-11.54-25.32-3.63-9.63-6.56-19.63-8.71-29.71l-.12.03c2.15,10.09,5.08,20.09,8.71,29.72,3.11,8.27,7,16.8,11.54,25.33.61,1.15,1.18,2.21,1.75,3.22Z"/>
      <path class="cls-3" d="M130.13,296.68l.06-.11c-17.6-8.99-32.23-23.09-42.29-40.77-3.79-6.67-5.44-11.91-7.33-18.54,3.98,3.25,7.53,5.28,10.67,7.08,5.16,2.94,9.23,5.27,12.94,11.38.6.99,1.19,2.07,1.74,3.22v.02s.13-.05.13-.05v-.03c-.57-1.15-1.16-2.23-1.76-3.22-3.73-6.14-7.82-8.47-12.99-11.42-3.18-1.81-6.78-3.87-10.81-7.19l-.15-.13.05.19c1.91,6.73,3.56,12.02,7.39,18.76,10.08,17.71,24.72,31.82,42.34,40.82Z"/>
      <path class="cls-3" d="M110.81,216.19c-.09-.1-9.48-9.95-14.33-14.7-5.91-5.78-10.24-14.3-12.53-24.62-2.34-10.54-4.53-32.15-4.55-32.37l-.03-.29.14.25c.07.12,7.08,12.21,10.88,17.99,1.76,2.67,3.1,5.11,4.52,7.7,1.12,2.04,2.28,4.15,3.79,6.67,6.78,11.31,12.15,39.04,12.21,39.32l.04.21-.15-.15ZM84.07,176.83c2.29,10.3,6.61,18.8,12.5,24.56,4.52,4.42,12.97,13.27,14.19,14.55-.51-2.59-5.69-28.3-12.15-39.07-1.51-2.52-2.67-4.63-3.79-6.67-1.42-2.59-2.76-5.03-4.52-7.7-3.5-5.32-9.71-15.98-10.74-17.74.27,2.61,2.32,22.2,4.52,32.07Z"/>
      <path class="cls-3" d="M150.6,283.06l.12-.03s0-.04-.01-.06c0-.02,0-.04-.01-.06-.04-.21-.09-.39-.13-.55,0-.01,0-.03-.01-.05-1.51-6.06-5.64-11.19-9.63-16.16-2.65-3.3-5.38-6.7-7.35-10.36-5.94-11.06-8.93-21.42-8.88-30.77h-.12c-.05,9.37,2.94,19.74,8.89,30.83,1.97,3.67,4.71,7.08,7.36,10.38,3.98,4.95,8.1,10.08,9.6,16.11,0,.02,0,.03,0,.04.04.17.09.35.13.56,0,.02,0,.04.01.06,0,.02,0,.04.01.06Z"/>
      <path class="cls-3" d="M124.6,225.08l-.07-.03.05-.06c.97-1.23,1.26-3.67,1.05-5.46-.09-.76-.32-1.5-.54-2.22-.25-.81-.51-1.64-.57-2.5-.05-.65.08-1.35.36-1.97.48-1.05,1.28-1.63,2.19-1.62.72.01,1.34.39,1.95.76.45.27.91.55,1.4.69.87.23,1.79,0,2.69-.22.96-.24,1.95-.49,2.89-.17.11.04.22.08.32.14.82.42,1.44,1.28,1.65,2.32.19.92.09,1.97-.3,3.21-.89,2.81-2.73,5.17-5.07,6.5-1.56.88-3.22,1.33-4.8,1.33-1.13,0-2.22-.23-3.19-.69ZM133.13,212.56c-.91.23-1.85.46-2.75.22-.51-.14-.98-.42-1.44-.7-.62-.38-1.2-.73-1.88-.74-.86-.02-1.62.55-2.07,1.55-.27.59-.39,1.29-.35,1.91.06.84.32,1.67.57,2.47.22.73.46,1.48.55,2.25.21,1.78-.08,4.22-1.03,5.49,2.29,1.06,5.2.81,7.81-.66,2.31-1.31,4.14-3.65,5.02-6.43.39-1.23.48-2.26.3-3.15-.21-1-.8-1.83-1.59-2.23-.1-.05-.2-.09-.31-.13-.3-.1-.62-.15-.93-.15-.62,0-1.26.16-1.89.32Z"/>
      <path class="cls-3" d="M124.6,225.07l.06-.11c-.49-.28-1.02-.55-1.57-.84-1.63-.85-3.48-1.8-4.65-3.02-2.25-2.34-3.44-5.68-3.18-8.92.05-.65.18-1.6.71-2.33.32-.45.8-.79,1.3-.92.27-.07.54-.08.8-.02.73.17,1.22.8,1.7,1.41.14.17.28.36.42.52.29.34.71.67,1.24.97,1.05.6,2.42,1.03,3.5,1.1v-.12c-1.05-.07-2.41-.5-3.44-1.09-.52-.3-.92-.62-1.21-.95-.14-.16-.28-.34-.42-.52-.49-.63-1-1.27-1.77-1.45-.28-.06-.57-.06-.86.02-.53.14-1.03.49-1.37.97-.54.76-.68,1.73-.73,2.4-.26,3.28.94,6.65,3.22,9.02,1.18,1.23,3.04,2.2,4.68,3.05.56.29,1.08.56,1.57.84Z"/>
      <path class="cls-3" d="M136.23,212.49l.12-.04c-.52-1.47-1.8-2.66-3.18-2.95-.56-.12-1.14-.12-1.71-.13-.19,0-.38,0-.57-.01-1.12-.04-2.25-.62-3.25-1.14-.84-.43-1.63-.84-2.31-.88-.56-.03-1.38.3-2.12.86-1.04.79-2.07,2.14-1.81,3.57l.12-.02c-.25-1.37.74-2.68,1.76-3.45.72-.55,1.5-.87,2.04-.84.65.04,1.43.44,2.26.87,1.01.52,2.15,1.11,3.3,1.15.19,0,.38,0,.58.01.56,0,1.13.01,1.68.13,1.34.28,2.58,1.44,3.09,2.87Z"/>
      <path class="cls-3" d="M117.3,208.89c.41-1.12,2.03-1.72,3.02-1.86.9-.12,2.54.39,2.86,1.23l.12-.05c-.36-.93-2.07-1.43-3-1.31-1.02.14-2.69.76-3.12,1.94l.12.04Z"/>
      <path class="cls-3" d="M235.3,257.27l.03-.12h-.03c-.1-.03-.19-.05-.28-.07-8.06-1.95-11.15-6.54-12.28-9.11-.5-1.15-.86-2.37-1.21-3.56-.3-1.02-.61-2.08-1.01-3.09-.26-.65-.45-1.25-.63-1.84-.28-.89-.54-1.72-1.01-2.66-.52-1.01-.6-2.21-.22-3.27.36-1.01,1.09-1.81,2.06-2.24,1.66-.73,2.66.04,3.62.78.54.42,1.05.81,1.66.94,2.11.46,3.2.65,5.17.13.55-.15,1.06-.3,1.56-.45,1.89-.57,3.52-1.06,5.58-.65,1.34.27,2.31,1.53,3.26,2.75.66.84,1.33,1.72,2.13,2.26.26.18.59.37.94.57,2,1.15,4.74,2.73,2.68,6.37l.11.06c2.12-3.75-.79-5.43-2.72-6.54-.34-.2-.67-.38-.93-.56-.78-.53-1.45-1.39-2.1-2.23-.96-1.24-1.95-2.51-3.33-2.79-2.1-.42-3.74.08-5.64.65-.5.15-1.01.31-1.56.45-1.94.52-3.03.32-5.11-.13-.58-.13-1.08-.51-1.61-.92-1-.77-2.02-1.56-3.75-.8-1,.44-1.75,1.26-2.12,2.31-.39,1.09-.3,2.32.23,3.36.47.92.73,1.76,1,2.64.18.59.37,1.19.63,1.85.4,1,.71,2.05,1.01,3.07.35,1.19.71,2.42,1.22,3.58,1.14,2.59,4.25,7.22,12.37,9.18.09.02.19.05.29.07h.03Z"/>
      <path class="cls-3" d="M263.5,280.66l.05-.12c-1.03-.43-2.03-1.01-2.99-1.71-2.14-1.58-3.91-3.64-5.63-5.64-.48-.56-.98-1.13-1.47-1.69-5.04-5.66-11.14-10.5-17.63-14.01-.27-.14-.53-.29-.8-.43-.01,0-.02-.01-.03-.01l-.04.12s0,0,.02,0c.26.14.53.28.79.42,6.48,3.5,12.56,8.34,17.59,13.98.5.56.99,1.13,1.47,1.69,1.72,2,3.5,4.06,5.65,5.66.96.71,1.98,1.29,3.01,1.73Z"/>
      <path class="cls-3" d="M267.69,281.57c.85,0,1.67-.12,2.45-.36,1.78-.55,3.39-1.97,4.21-3.72.69-1.46.76-3,.2-4.33-.29-.7-.75-1.33-1.18-1.92l-.14-.19c-.56-.75-1.13-1.52-1.43-2.41-.56-1.71,0-3.55.54-5.32.55-1.8,1.12-3.66.52-5.42-1.03-3.05-4.8-3.97-7.54-4.41-3.24-.51-6.51-1.22-7.84-3.83-.28-.54-.45-1.14-.61-1.72-.17-.59-.34-1.19-.62-1.74-1.21-2.38-4.26-3.25-6.65-2.87-.76.12-1.5.34-2.28.66l-.04.02c-1.69.71-3.2,1.81-4.46,2.79-1.73,1.35-3.41,2.82-4.99,4.37-.95.93-1.92,1.96-2.35,3.26-.06.17-.12.33-.17.48-.35.97-.56,1.55.42,2.69l.09-.08c-.94-1.09-.75-1.61-.4-2.57.05-.15.11-.31.17-.48.42-1.28,1.38-2.29,2.32-3.21,1.57-1.54,3.25-3.01,4.98-4.36,1.26-.98,2.78-2.09,4.47-2.79l.04-.02c.75-.31,1.48-.52,2.21-.63,2.34-.37,5.33.47,6.51,2.8.28.54.45,1.14.61,1.72.17.59.34,1.19.62,1.74,1.36,2.65,4.66,3.38,7.93,3.89,2.71.43,6.43,1.34,7.44,4.32.58,1.72.02,3.56-.53,5.34-.55,1.79-1.11,3.64-.54,5.39.3.91.88,1.69,1.44,2.45l.14.19c.43.58.88,1.21,1.17,1.9.54,1.29.47,2.79-.2,4.23-.81,1.72-2.39,3.12-4.13,3.66-1.99.61-4.26.43-6.56-.54l-.05.11c1.43.6,2.85.9,4.2.9Z"/>
      <path class="cls-3" d="M270.87,291.71l.05-.03c12.52-7.02,23.51-15.74,32.66-25.92,9.71-10.8,16.86-22.73,21.25-35.45l.06-.17-.15.09c-.39.24-39.02,24.59-51.47,40.99l.1.08c12.04-15.86,48.63-39.18,51.28-40.87-8.6,24.78-27.68,46.47-53.75,61.11-.43-.61-5-7.04-7.33-10.97l-.05.03h-.06s0,.02,0,.02v.02c2.45,4.11,7.33,10.96,7.38,11.03l.03.05Z"/>
      <path class="cls-3" d="M278.54,302.29l.09-.09-.04.04.05-.03v-.02c-1.89-2.89-3.78-5.79-5.66-8.69,8.76-7.71,20.92-9.27,32.68-10.78,1.82-.23,3.7-.48,5.52-.74,9.83-1.4,19.59-3.72,28.99-6.88.08-.02.16-.05.23-.08l-.03-.12h0c-.08.03-.15.05-.23.08-9.4,3.16-19.15,5.47-28.97,6.87-1.82.26-3.7.5-5.52.74-11.8,1.52-24,3.09-32.79,10.85l-.04.04.03.05c1.89,2.91,3.79,5.83,5.68,8.74v.02Z"/>
      <path class="cls-3" d="M278.68,302.25c4.62-1.7,9.55-2.39,14.32-3.05,4.81-.67,9.79-1.37,14.4-3.1,2.24-.84,7.74-3.02,10.43-5.03,3.95-2.96,7.66-5.54,11.25-8.03,3.55-2.46,7.21-5.01,11.11-7.92l.08-.06s.07-.05.11-.08l-.08-.1s-.07.05-.11.08l-.08.06c-3.89,2.91-7.56,5.46-11.11,7.92-3.59,2.49-7.3,5.07-11.26,8.03-2.68,2-8.16,4.17-10.4,5.01-4.6,1.73-9.57,2.43-14.37,3.1-4.77.67-9.71,1.36-14.35,3.06l.04.12Z"/>
      <path class="cls-3" d="M292.55,329.86c-2.5-7.69-7.16-16.42-12.78-23.93l.09-.07-.08-.09c.92-.89,2.19-1.4,3.47-1.41.74,0,1.48.16,2.18.31l4.12.9c1.23.27,2.59.65,3.13,1.79.36.76.23,1.62.1,2.44-.08.5-.16,1.02-.14,1.51.11,2.04,2,3.49,3.56,4.35.33.18.67.36,1.01.53,1.43.74,2.92,1.5,3.86,2.82,1.6,2.23,1.08,5.26-.14,7.28-1.36,2.24-3.62,3.82-5.66,5.07-.32.2-.65.38-1,.39-.01,0-.02,0-.04,0-.71,0-1.27-.64-1.68-1.9ZM283.24,304.5c-1.25,0-2.48.5-3.38,1.36,5.63,7.53,10.29,16.26,12.8,23.97.4,1.22.94,1.83,1.6,1.81.32,0,.62-.17.94-.37,2.02-1.24,4.27-2.81,5.61-5.03,1.2-1.98,1.71-4.96.15-7.14-.93-1.29-2.4-2.05-3.82-2.78-.33-.17-.68-.35-1.01-.53-1.59-.87-3.51-2.35-3.62-4.45-.03-.51.06-1.03.14-1.54.13-.84.26-1.64-.09-2.37-.52-1.08-1.85-1.46-3.05-1.72l-4.12-.9c-.69-.15-1.41-.31-2.14-.31h-.02Z"/>
      <path class="cls-3" d="M118.06,313.93c1.47,0,2.93-.32,4.34-.62.21-.05.42-.09.63-.13,1.8-.38,3.36-.18,5.15.22l.03-.12c-1.81-.41-3.39-.6-5.21-.22-.21.04-.42.09-.63.13-1.58.34-3.22.7-4.85.6-2.08-.12-3.83-1.03-4.7-2.44-.03-.05-.06-.1-.09-.15-.73-1.3-.68-2.79-.51-3.81.22-1.29,1.22-3.06,2.24-3.94l.2-.17c.26-.23.51-.44.75-.62.82-.59,1.38-1.45,1.58-2.44,0-.01,0-.03.01-.04.19-.91.73-1.7,1.5-2.23,1.1-.75,2.49-.84,3.64-.23,1.86.99,2.81,3.1,3.36,4.6.67,1.82,1.14,3.71,1.39,5.62.04.29.07.58.11.87.15,1.27.3,2.58.81,3.74l.11-.05c-.5-1.14-.65-2.44-.8-3.7-.03-.29-.07-.58-.11-.87-.26-1.92-.73-3.82-1.4-5.64-.56-1.52-1.52-3.65-3.42-4.66-1.19-.63-2.63-.54-3.77.24-.8.55-1.36,1.37-1.56,2.31,0,.01,0,.02,0,.04-.19.97-.74,1.81-1.53,2.37-.25.18-.5.4-.76.63l-.2.17c-1.04.9-2.06,2.7-2.28,4.02-.18,1.04-.23,2.56.52,3.89.03.05.06.1.09.16.89,1.44,2.68,2.37,4.8,2.49.18.01.36.02.54.02Z"/>
      <path class="cls-15" d="M128.18,313.21l.11-.06c-.13-.22-.25-.44-.35-.67l-.11.05c.1.23.22.46.35.69Z"/>
      <path class="cls-3" d="M112.82,324.42c1.14,0,2.27-.18,3.32-.35l.72-.11c1.76-.28,3.52-.56,5.28-.83.97-.15,2.08-.33,2.99-.87,1.76-1.05,2.47-3.14,3.05-5.19.34-1.21.64-2.61.24-3.75-.11-.31-.27-.6-.48-.85l-.05.04-.04.04c.2.23.36.51.46.81.39,1.11.1,2.48-.24,3.68-.57,2.03-1.27,4.09-2.99,5.12-.89.53-1.99.7-2.95.86-1.76.28-3.52.55-5.28.83l-.72.11c-1.81.29-3.86.61-5.73-.02-1.12-.38-2.28-1.37-2.3-2.53,0-.3.07-.61.22-.9.21-.42.57-.76,1.03-.99.74-.37,1.5-.48,2.1-.29.13.04.25.09.38.15.21.09.44.19.68.21h.02c.24.02.45-.11.54-.33.1-.24.04-.51-.16-.68-1-.88-1.63-2.13-1.72-3.43-.03-.41-.02-.81.04-1.18.15-1.05.61-1.95,1.37-2.65l-.08-.09c-.79.72-1.26,1.64-1.41,2.72-.05.37-.07.78-.04,1.2.09,1.34.73,2.62,1.76,3.52.19.16.19.39.12.53-.06.14-.2.28-.42.26-.23-.02-.43-.11-.65-.2-.13-.05-.25-.11-.39-.15-.63-.2-1.42-.09-2.19.3-.49.24-.86.6-1.09,1.04-.16.32-.24.64-.23.96.03,1.22,1.22,2.26,2.39,2.65.81.27,1.64.37,2.47.37Z"/>
      <path class="cls-3" d="M110.71,314.1c.16,0,.31-.03.44-.1l-.06-.11c-.44.22-1,.04-1.7-.56-.87-.74-1.85-1.66-2.47-2.83-.4-.76-.61-1.56-.59-2.33,0-.45.08-.89.24-1.29.19-.47.48-.89.76-1.3.26-.38.54-.78.73-1.22.31-.7.4-1.47.49-2.22.09-.78.18-1.58.52-2.28.57-1.17,1.85-2.06,3.44-2.37,1.26-.24,3.79.07,5.3.26.21.03.4.05.57.07v-.12c-.16-.02-.35-.04-.55-.07-1.62-.2-4.06-.5-5.33-.25-1.62.32-2.94,1.23-3.53,2.44-.35.72-.44,1.54-.54,2.32-.09.74-.18,1.5-.48,2.18-.19.42-.46.82-.72,1.2-.29.42-.59.85-.78,1.33-.17.42-.25.87-.25,1.33-.01.79.2,1.61.61,2.39.63,1.19,1.62,2.11,2.5,2.86.54.45,1,.68,1.4.68Z"/>
      <path class="cls-3" d="M107.8,321.47l.02-.12c-.45-.07-.58-.09-.72-.11l-.68-.11c-.76-.12-1.54-.24-2.24-.6-.75-.39-1.26-1.06-1.34-1.74-.08-.7.26-1.32.61-1.99.3-.55.61-1.13.65-1.75.04-.54-.12-1.07-.28-1.59-.17-.58-.34-1.12-.25-1.68.13-.8.74-1.42,1.41-2.05.27-.25.46-.51.65-.76.18-.25.37-.5.64-.75l-.08-.09c-.28.26-.47.52-.65.77-.18.24-.37.5-.63.74-.69.64-1.32,1.28-1.45,2.12-.09.59.08,1.17.26,1.74.15.5.31,1.02.27,1.54-.04.6-.35,1.16-.64,1.7-.35.65-.71,1.32-.63,2.06.08.73.6,1.42,1.4,1.84.71.37,1.51.5,2.28.62l.68.11c.15.02.28.04.72.11Z"/>
      <path class="cls-3" d="M165.82,377.2c.69-3,1.88-8.73,2.13-13.43.08-1.49.12-3.24-.11-4.98-.74-5.51-4.16-10.25-7.18-14.43-1.44-2-2.89-4.01-4.33-6.01-1.46-2.02-2.91-4.03-4.36-6.05l-.1.07c1.45,2.02,2.91,4.03,4.36,6.05,1.44,2,2.89,4.01,4.33,6.01,3.01,4.17,6.41,8.9,7.15,14.38.23,1.73.19,3.47.11,4.96-.24,4.69-1.43,10.41-2.12,13.4l.12.03Z"/>
      <path class="cls-3" d="M133.14,387.66c.68,0,1.37-.15,2.05-.3l.28-.06c2.78-.6,5.63-.73,8.45-.4.31.04.61.08.92.12,1.17.16,2.39.32,3.57.15,1.13-.15,2.18-.59,3.2-1,3.71-1.52,7.92-3.23,10.97-6.29.09-.09.17-.17.26-.26.43-.44.88-.91,1.43-1.2.12-.07.26-.13.39-.2.4-.19.81-.39,1.04-.73.06-.08.1-.17.13-.28l-.12-.04c-.03.09-.07.17-.12.24-.21.32-.61.51-.99.69-.13.06-.27.13-.4.2-.56.31-1.02.77-1.46,1.22-.08.09-.17.17-.25.26-3.03,3.04-7.22,4.75-10.93,6.26-1.01.41-2.06.84-3.17.99-1.17.16-2.38,0-3.54-.15-.31-.04-.61-.08-.92-.12-2.84-.33-5.69-.2-8.49.4l-.28.06c-1.04.23-2.11.47-3.1.13-1.25-.42-2.01-1.64-2.43-2.58-.22-.49-.39-1.01-.56-1.51-.22-.65-.45-1.32-.77-1.95-.55-1.07-1.36-2.02-2.15-2.94-1.18-1.37-2.3-2.67-2.62-4.37-.38-2.03.59-4.38,2.57-6.29.56-.54,1.22-1.07,2.06-1.69.41-.3.84-.59,1.25-.88.79-.55,1.62-1.12,2.38-1.74.48-.39.97-.83,1.31-1.4.56-.94.61-2.06.65-3.14.01-.37.03-.76.07-1.13.31-3.18,2.4-6.08,5.32-7.39.16-.07.3-.13.44-.18.2-.08.4-.16.6-.23.61-.23,1.25-.47,1.82-.83,1.16-.74,2.01-1.98,2.27-3.33.14-.72.12-1.47.1-2.19-.02-.75-.04-1.53.12-2.27.42-1.95,1.92-3.28,3.5-4.68,1.28-1.13,2.6-2.31,3.29-3.84.04-.08.08-.17.11-.26l-.12-.05c-.03.09-.07.17-.11.25-.68,1.51-1.99,2.67-3.26,3.8-1.53,1.36-3.11,2.76-3.54,4.75-.16.76-.14,1.54-.12,2.3.02.72.04,1.46-.09,2.17-.25,1.32-1.08,2.53-2.22,3.25-.55.35-1.18.59-1.79.82-.2.08-.4.15-.6.23-.14.05-.28.11-.44.19-2.96,1.33-5.07,4.27-5.39,7.5-.04.37-.05.76-.07,1.14-.04,1.07-.09,2.17-.63,3.09-.33.55-.81.98-1.28,1.36-.76.62-1.58,1.19-2.37,1.74-.41.29-.84.58-1.25.88-.85.62-1.51,1.16-2.07,1.7-2.02,1.94-2.99,4.33-2.61,6.4.32,1.73,1.5,3.1,2.65,4.43.78.91,1.6,1.85,2.14,2.91.31.62.54,1.29.76,1.93.17.5.35,1.02.57,1.52.43.97,1.2,2.22,2.5,2.65.37.12.74.17,1.12.17Z"/>
      <path class="cls-3" d="M165.58,377.47l.11-.06c-.5-.98-1.18-2.17-1.83-3.31-.64-1.13-1.31-2.3-1.81-3.27-.45-.89-.92-1.81-1.6-2.59-1.41-1.62-3.5-2.39-5.17-2.88-2.31-.68-4.7-1.08-7.12-1.2-.19,0-.38-.02-.57-.02-.99-.04-2.01-.08-2.97-.37-2.3-.69-4.18-2.87-4.91-5.69-.67-2.59-.4-5.3-.06-7.85l-.12-.02c-.34,2.56-.61,5.28.07,7.9.75,2.86,2.66,5.07,5,5.78.97.29,2,.33,3,.37.19,0,.38.01.57.02,2.41.11,4.79.52,7.09,1.19,1.65.49,3.72,1.25,5.11,2.84.67.77,1.13,1.68,1.58,2.56.5.97,1.17,2.14,1.81,3.27.65,1.14,1.33,2.32,1.83,3.3Z"/>
      <path class="cls-3" d="M127.69,365.73v-.12c-2.03-.24-3.9-1.78-4.53-3.75-.19-.58-.27-1.21-.36-1.81-.09-.64-.18-1.31-.4-1.93-.05-.14-.1-.27-.15-.4-.16-.38-.35-.77-.54-1.14-.61-1.22-1.19-2.38-.71-3.54.37-.9,1.32-1.45,2.19-1.86.19-.09.39-.18.58-.27,1.23-.56,2.5-1.15,3.37-2.19.73-.87,1.09-1.97,1.44-3.03.13-.4.27-.81.42-1.21,1.31-3.36,4.27-6.05,7.74-7.03.99-.28,2.02-.43,3.02-.57.51-.07,1.03-.15,1.55-.24,3.4-.61,6.67-2,9.48-4.02l-.07-.1c-2.79,2.01-6.05,3.39-9.43,3.99-.51.09-1.04.17-1.55.24-1,.15-2.04.3-3.04.58-3.5.99-6.5,3.71-7.82,7.1-.15.4-.29.81-.42,1.21-.35,1.05-.71,2.14-1.42,2.99-.85,1.02-2.11,1.6-3.33,2.15-.19.09-.39.18-.58.27-.9.42-1.87.98-2.26,1.92-.5,1.21.12,2.45.72,3.64.19.37.38.76.54,1.13.05.13.11.26.15.4.21.61.3,1.27.39,1.91.09.61.17,1.23.36,1.83.64,2.01,2.55,3.59,4.65,3.84Z"/>
      <path class="cls-3" d="M128.21,381.42l.05-.11c-1.07-.47-1.95-.54-2.97-.62-.42-.03-.85-.07-1.33-.14-1.25-.17-3.01-.64-4.29-1.89-1.21-1.18-1.71-2.92-1.24-4.33.06-.19.14-.37.22-.55.12-.29.25-.59.31-.9.23-1.17-.45-2.23-1.12-3.24-.61-.94-1.24-1.91-1.16-2.97.08-1.2,1-2.1,1.89-2.97.19-.18.38-.38.56-.57,1.4-1.46,2.38-3.36,2.76-5.35l-.12-.02c-.37,1.96-1.34,3.84-2.73,5.29-.18.19-.37.38-.56.56-.91.89-1.84,1.81-1.93,3.05-.07,1.11.57,2.09,1.18,3.05.68,1.04,1.32,2.03,1.1,3.15-.06.3-.18.6-.3.88-.08.18-.16.37-.22.56-.48,1.45.03,3.24,1.27,4.46,1.03,1.01,2.54,1.68,4.36,1.93.48.07.91.1,1.33.14,1.01.08,1.88.15,2.93.61Z"/>
      <path class="cls-3" d="M193.19,426.82l.12-.03c-.82-2.92-2.29-7.07-4.49-12.7-.02-.06-.04-.11-.06-.17s-.04-.11-.06-.17c-.84-2.13-1.65-4.16-2.34-5.86-.83-2.05-1.84-4.43-3.24-6.57-.4-.61-.83-1.21-1.25-1.8-.39-.53-.79-1.09-1.16-1.64-.87-1.31-1.62-2.74-2.34-4.11-.46-.87-.94-1.78-1.44-2.65-2.5-4.32-6.39-10.44-11.26-13.74l-.07.1c4.85,3.28,8.72,9.39,11.22,13.7.5.87.98,1.77,1.44,2.64.72,1.38,1.47,2.8,2.35,4.12.37.56.77,1.11,1.16,1.65.42.58.85,1.18,1.25,1.79,1.39,2.14,2.39,4.5,3.22,6.55.69,1.7,1.5,3.72,2.34,5.85.02.06.04.11.07.17.02.06.04.11.06.17,2.2,5.62,3.66,9.77,4.48,12.69Z"/>
      <path class="cls-3" d="M193.57,428.63l-34.71-16.4c-2.46-1.16-5.01-2.37-7.28-3.97-2.25-1.59-4.22-3.56-6.12-5.47l-14.5-14.51.34.17c5.65,2.81,11.59,5.31,17.34,7.73,11.02,4.64,22.42,9.44,32.21,16.59,1.69,1.23,2.93,2.25,4,3.28,1.38,1.33,2.71,2.89,4.16,4.92,1.39,1.92,2.67,3.95,3.83,6.05.27.49.53.97.77,1.44.01.03.03.05.04.08.02,0,.04.02.05.03.02.01.05.02.07.03l-.04.1s.02.05.04.07l-.11.06c-.03-.06-.06-.12-.1-.19ZM145.55,402.71c1.9,1.9,3.87,3.87,6.1,5.45,2.26,1.59,4.8,2.8,7.26,3.96l34.56,16.33c-.23-.45-.48-.91-.73-1.37-1.15-2.09-2.43-4.12-3.82-6.03-1.45-2.02-2.77-3.58-4.15-4.9-1.07-1.03-2.3-2.04-3.99-3.27-9.78-7.14-21.17-11.94-32.19-16.58-5.63-2.37-11.45-4.82-17-7.56l13.96,13.98Z"/>
      <path class="cls-3" d="M190.33,393.29c.28-1.13-.03-2.16-.36-3.25-.3-1-.61-2.03-.42-3.13.08-.48.26-.93.43-1.38.08-.2.16-.41.23-.62.31-.92.46-1.88.6-2.87.5-3.74.78-7.55.82-11.33v-.05c.01-1.07.03-2.17.52-3.12.49-.93,1.53-1.58,2.7-1.68,1.06-.1,2.04.24,2.7.93.74.78,1.05,1.85,1.35,2.89.29,1.03.6,2.09,1.33,2.85.81.84,1.99,1.18,3.13,1.5.21.06.43.12.64.18,1.25.38,2.81,1.13,3.18,2.56.16.63.06,1.29-.04,1.92-.03.19-.06.39-.08.58-.18,1.49.11,3.04.8,4.37.13.24.27.48.4.71.16.27.32.54.46.82.09.18.17.36.23.54.32.88.24,1.74-.2,2.3-.48.62-1.33.8-1.93.89-1.22.18-2.48.15-3.69.12-.88-.02-1.78-.05-2.67.01-3.82.25-7.4,1.82-9.82,4.31,0,0-.02.02-.04.03-.06.04-.11,0-.14-.01-.02-.02-.02-.02-.04,0l-.14.09.04-.16ZM203.13,388.9c1.21.03,2.46.06,3.67-.12.58-.08,1.39-.26,1.85-.84.42-.53.48-1.34.18-2.18-.06-.18-.14-.35-.23-.53-.14-.28-.3-.55-.46-.82-.14-.23-.28-.47-.41-.72-.7-1.35-.99-2.93-.81-4.45.02-.19.05-.39.08-.58.1-.62.2-1.26.04-1.87-.35-1.37-1.88-2.1-3.09-2.47-.21-.06-.42-.12-.64-.18-1.16-.33-2.35-.66-3.18-1.53-.75-.78-1.06-1.86-1.36-2.9-.29-1.02-.6-2.08-1.32-2.84-.63-.66-1.57-.98-2.6-.89-1.14.1-2.13.72-2.6,1.61-.48.92-.49,2.01-.51,3.06v.05c-.05,3.78-.32,7.6-.82,11.34-.14,1-.28,1.97-.6,2.9-.07.21-.15.42-.23.62-.17.44-.34.89-.42,1.35-.19,1.07.12,2.09.42,3.08.31,1.03.64,2.1.38,3.23.02,0,.04.02.06.03,0,0,.01,0,.02,0,2.44-2.52,6.05-4.1,9.9-4.35.41-.03.83-.04,1.25-.04.48,0,.96.01,1.43.02Z"/>
      <path class="cls-3" d="M213.82,401.53c.97,0,1.94-.14,2.87-.47.4-.14.96-.38,1.3-.86.39-.56.4-1.35.01-2.22-.09-.21-.22-.44-.37-.67-.37-.56-.83-1.11-1.28-1.63-1.1-1.31-2.25-2.66-2.09-4.31.02-.26.08-.52.14-.77.12-.56.25-1.14.04-1.68-.17-.45-.56-.79-.92-1.05l-.16-.12c-1.41-1-2.9-1.88-4.44-2.62l-.05.11c1.54.74,3.03,1.61,4.43,2.61l.16.12c.34.25.72.57.88.99.2.51.08,1.04-.05,1.61-.06.26-.12.53-.14.79-.17,1.7.99,3.07,2.11,4.4.44.52.9,1.07,1.27,1.62.15.22.27.44.36.65.21.48.5,1.39,0,2.1-.31.45-.85.68-1.24.82-2.87,1.03-6.07.17-8.83-.82-2.22-.79-4.76-1.83-6.74-3.55-.38-.33-.75-.69-1.11-1.04-.88-.86-1.79-1.75-2.94-2.24-1.69-.72-4.34-.4-6.46-.04v.13s.01,0,.01,0c2.11-.36,4.74-.68,6.39.03,1.13.48,2.03,1.36,2.9,2.22.36.35.73.71,1.11,1.05,2,1.73,4.55,2.78,6.78,3.57,1.89.67,3.98,1.29,6.04,1.29Z"/>
      <path class="cls-3" d="M221.85,399.09c1.15,0,2.2-.47,2.78-1.26.59-.8.73-1.97.39-3.13-.31-1.04-.95-1.95-1.57-2.8-.62-.83-1.25-1.8-.89-2.71.05-.13.12-.25.19-.37.05-.09.11-.19.15-.29.39-.83.2-1.92-.47-2.71-.4-.47-.95-.84-1.63-1.08-.27-.1-.57-.17-.87-.22-2.42-.41-5.07.83-6.3,2.95l.11.06c1.21-2.08,3.8-3.29,6.17-2.89.3.05.59.12.85.22.66.24,1.19.59,1.58,1.04.64.75.82,1.79.45,2.58-.04.1-.1.19-.15.28-.07.12-.14.25-.2.39-.36.93.23,1.91.91,2.83.62.84,1.25,1.74,1.56,2.76.33,1.12.2,2.25-.37,3.02-.59.8-1.69,1.26-2.87,1.2-1.18-.06-2.27-.57-3.09-1.01l-.06.11c.83.45,1.94.97,3.14,1.03.07,0,.13,0,.2,0Z"/>
      <path class="cls-3" d="M220.97,384.14c1.41-2.16.17-5.17-1.79-7.02-.77-.73-1.64-1.36-2.49-1.98-1.22-.89-2.49-1.82-3.44-3.02-.65-.82-1.16-1.78-1.66-2.71-.86-1.6-1.74-3.25-3.31-4.17-.81-.48-1.73-.71-2.63-.93-1.49-.37-2.97-.75-4.46-1.12-.61-.15-1.23-.31-1.87-.25-.61.06-1.18.32-1.62.55-1.3.68-2.02,1.16-2.92,2.23l.1.08c.88-1.05,1.61-1.53,2.88-2.2.45-.23.99-.48,1.57-.53.62-.06,1.23.1,1.83.25,1.49.38,2.97.75,4.46,1.12.88.22,1.8.45,2.59.92,1.54.9,2.38,2.47,3.26,4.12.5.93,1.02,1.9,1.67,2.73.96,1.22,2.23,2.15,3.46,3.05.84.61,1.71,1.25,2.47,1.97,1.92,1.81,3.14,4.75,1.77,6.86l.1.07Z"/>
      <path class="cls-3" d="M188.71,414.13l.11-.05c-.06-.13-.1-.24-.13-.33-.46-1.29-.33-2.38-.19-3.65.06-.54.13-1.11.15-1.73.18-4.91.37-9.99,1.66-14.83l-.12-.03c-1.29,4.85-1.48,9.94-1.66,14.86-.02.62-.09,1.18-.15,1.72-.15,1.28-.27,2.39.19,3.7.03.1.07.2.13.34Z"/>
      <path class="cls-3" d="M193.82,428.4c.04-.47.1-.98.19-1.51.33-2,.98-4.34,1.85-6.57,1.33-3.42,4.16-6.56,8.19-9.06,2.75-1.71,5.79-3,8.73-4.25.83-.35,1.68-.72,2.52-1.08,1.55-.68,3.11-1.49,3.98-2.78.17-.25.31-.52.42-.79l-.12-.05c-.11.27-.24.52-.41.77-.86,1.27-2.4,2.06-3.93,2.74-.84.37-1.69.73-2.52,1.08-2.94,1.25-5.99,2.55-8.75,4.26-4.05,2.52-6.91,5.67-8.24,9.12-.87,2.24-1.53,4.59-1.86,6.6-.09.53-.15,1.04-.19,1.52h.12Z"/>
      <path class="cls-3" d="M193.93,428.63c.54-.36,2.46-1.01,3.08-1.17,5.55-1.41,10.65-4.49,14.73-8.92,4.09-4.43,6.76-9.75,7.72-15.4l-.12-.02c-1.94,11.41-11.14,21.37-22.36,24.21-.63.16-2.57.83-3.12,1.19l.07.1Z"/>
      <path class="cls-3" d="M256.25,394.97l.02-.12c-3.03-.46-7.04-2.17-11-4.7-3.5-2.23-6.25-4.68-6.83-6.09-.2-.49-.14-.83.19-1.01,2.45-1.4,16.24,5.65,16.38,5.72h.02s.03,0,.03,0c5.38-1.84,9.13-1.19,11.33-.31,2.25.89,3.33,2.18,3.34,2.19l.1-.08s-1.11-1.32-3.39-2.23c-2.22-.88-5.99-1.54-11.39.3-.84-.43-13.99-7.12-16.48-5.7-.27.15-.52.48-.24,1.17.6,1.43,3.36,3.9,6.88,6.15,3.98,2.54,8.01,4.26,11.05,4.72Z"/>
      <path class="cls-3" d="M260.79,403.38c1.54,0,3.15-.13,4.86-.37,31.56-4.59,40.58-35.04,40.95-36.34,0-.02.01-.03.01-.03l-.12-.03s0,.01,0,.03c-.37,1.29-9.37,31.67-40.84,36.25-12.35,1.79-18.17-3.38-24.33-8.86l-.61-.54c-4.94-4.38-16.13-15-13.26-18.9l-.1-.07c-1.26,1.72-.06,4.84,3.59,9.28,2.97,3.62,6.91,7.32,9.7,9.79l.61.54c3.17,2.81,6.15,5.47,9.92,7.22,2.95,1.37,6.09,2.04,9.65,2.04Z"/>
      <path class="cls-3" d="M158.93,256.18s.06-.05.08-.07c1.23-1.02,2.27-2.13,3.37-3.29.91-.96,1.84-1.95,2.91-2.92l-.08-.09c-1.07.97-2.01,1.97-2.92,2.93-1.1,1.17-2.14,2.27-3.37,3.29-.03.02-.05.04-.08.07l.08.1Z"/>
      <path class="cls-3" d="M183.95,259.88l.03-.12h-.06c-2.32-.5-6.64-1.42-8.79-2.5-1.03-.51-1.97-1.14-2.76-1.69-2.49-1.73-4.85-3.67-7.03-5.76l-.09.09c2.18,2.1,4.55,4.04,7.04,5.78.79.55,1.74,1.18,2.78,1.7,2.16,1.08,6.49,2,8.82,2.5h.06Z"/>
      <path class="cls-3" d="M176.33,266.46l.04-.12c-6.49-2.45-12.47-6-17.3-10.26l-.08.09c4.84,4.28,10.84,7.83,17.34,10.29Z"/>
      <path class="cls-3" d="M182.25,306.27c.03-4.2.06-9.51.09-14.88.03-5.83.07-11.85.1-16.46,0-.35,0-.71,0-1.07.02-4.61.05-9.83,1.57-14.03l-.12-.04c-1.53,4.21-1.55,9.45-1.58,14.07,0,.36,0,.72,0,1.07-.03,4.61-.07,10.63-.1,16.46-.03,5.37-.06,10.69-.09,14.88h.12Z"/>
      <rect class="cls-3" x="165.73" y="276.87" width="21.05" height=".12" transform="translate(-102.14 450.86) rotate(-89.52)"/>
      <path class="cls-3" d="M208.12,250.22l.11-.05c-2.39-5.17-4.01-10.8-4.23-14.69-.34-6.22.82-13.42,3.19-19.75l-.12-.04c-2.37,6.34-3.54,13.56-3.19,19.8.26,4.66,2.36,10.66,4.24,14.73Z"/>
      <path class="cls-3" d="M217.03,253.78l.03-.12c-2.72-.61-5.94-1.9-8.85-3.52l-.06.11c2.92,1.63,6.15,2.92,8.88,3.54Z"/>
      <path class="cls-3" d="M192.93,261.5c3.27-.18,5.96-2.19,8.44-4.22,2.54-2.08,4.84-4.45,6.85-7.05l-.1-.08c-2.01,2.59-4.31,4.96-6.83,7.03-2.47,2.02-5.14,4.01-8.37,4.19v.12Z"/>
      <path class="cls-3" d="M200.59,266.39c1.13-.55,2.22-1.22,3.27-1.86l4.37-2.66c.76-.46,1.39-.96,2.05-1.49.13-.1.25-.2.39-.31,1.32-1.04,2.34-1.95,3.11-2.78l3.31-3.54-.09-.09-3.31,3.54c-.77.82-1.78,1.72-3.1,2.76-.13.1-.26.21-.39.31-.66.52-1.28,1.02-2.04,1.48l-4.37,2.66c-1.05.64-2.14,1.3-3.26,1.85l.05.11Z"/>
      <path class="cls-3" d="M185.46,339.39l.08-.44c2.79-15.69,3.45-31.9,4.08-47.57.26-6.39.53-13.01.94-19.49.25-3.92.6-7.4,2.42-10.36l-.11-.07c-1.84,2.98-2.19,6.48-2.44,10.42-.41,6.49-.68,13.1-.94,19.49-.63,15.52-1.28,31.57-4,47.11-.4-3.85-.97-8.14-1.53-12.29-.58-4.34-1.18-8.82-1.58-12.8h-.12c.4,4,1,8.48,1.58,12.82.58,4.31,1.18,8.77,1.57,12.73l.04.45Z"/>
      <path class="cls-3" d="M190.12,350.23c1.87-22.71,5.62-46.58,8.63-65.75.45-2.87.7-6.02.94-9.07.24-3.05.49-6.2.94-9.06l-.12-.02c-.45,2.87-.7,6.02-.94,9.07-.24,3.05-.49,6.2-.94,9.06-3.01,19.18-6.76,43.04-8.63,65.76h.12Z"/>
      <path class="cls-3" d="M190.05,350.39v-.12c-1.56-.1-2.81-.12-4.25-.14-.32,0-.66-.01-1.01-.02-.89-.02-4.09,0-4.33.05l.02.12c.21-.04,3.33-.07,4.31-.05.35,0,.68.01,1.01.02,1.44.02,2.68.04,4.25.14Z"/>
      <path class="cls-3" d="M180.41,350.23l.12-.02c-.79-5.5-1.05-10.85-1.33-16.51l-.02-.31c-.02-.32-.05-1.09-.09-1.85-.03-.72-.06-1.43-.08-1.73h-.12c.01.31.05,1.02.08,1.74.03.76.07,1.54.09,1.85l.02.31c.28,5.66.54,11.01,1.33,16.52Z"/>
      <path class="cls-3" d="M221.38,220.39c.6,0,1.2-.04,1.8-.12,3.24-.44,6.55-2.17,10.12-5.29,2.58-2.26,5.03-4.89,7.47-8.04,8.9-11.5,14.3-25.83,15.22-40.34.26-4.06-1.82-11.57-3.86-15.57-2.67-5.25-8.23-9.61-14.88-11.64-3.72-1.14-7.44-1.83-11.04-2.5-3.61-.67-7.35-1.37-11.09-2.52-14.21-4.37-18.34-6.63-26.24-18.76,0-.01,0-.02,0-.03l-1.12-3.91s0-.02,0-.03l-1.14-3.25-1.55-3.84-1.3-2.88-1.19-2.46-1.15-2.25-1.89-3.49-.11.06,1.89,3.49,1.15,2.25,1.19,2.46,1.3,2.87,1.55,3.83,1.14,3.25s0,.01,0,.02l.05.14,1.09,3.81c7.93,12.18,12.07,14.44,26.32,18.83,3.74,1.15,7.48,1.85,11.1,2.52,3.59.67,7.31,1.36,11.02,2.5,6.62,2.03,12.15,6.36,14.81,11.58,2.03,3.99,4.1,11.46,3.84,15.5-.92,14.48-6.32,28.79-15.2,40.27-2.44,3.15-4.88,5.78-7.45,8.03-3.6,3.15-6.8,4.82-10.05,5.26-3.63.49-7.29-.67-9.73-1.59-2.13-.81-4.24-1.78-6.27-2.89-9.06-4.98-16.5-12.77-20.96-21.94l-.11.05c4.47,9.19,11.93,17.01,21.01,22,2.03,1.12,4.15,2.09,6.29,2.9,2.05.77,4.96,1.72,7.99,1.72Z"/>
      <path class="cls-3" d="M369.74,246.2l.12-.02c-2.06-15.95-13.13-29.17-21.28-37.73-2.73-2.86-5.6-5.7-8.37-8.45-4.19-4.15-8.52-8.43-12.46-12.9l-.09.08c3.94,4.47,8.28,8.76,12.47,12.91,2.77,2.74,5.64,5.58,8.37,8.45,8.14,8.54,19.19,21.75,21.25,37.66Z"/>
      <path class="cls-3" d="M327.66,187.19l.09-.08c-3.46-3.92-6.28-7.6-8.62-11.24-4.73-7.36-8.14-15.59-11.43-23.55-1.61-3.9-3.28-7.92-5.08-11.8-5.8-12.48-12.85-22.9-20.96-30.96-3.37-3.35-6.98-6.33-10.71-8.86-5.66-3.83-12.24-7.12-20.72-10.34-12.23-4.65-24.22-7.3-35.63-7.89-13.39-.69-26.1,1.47-37.77,6.42l.05.11c21.78-9.23,46.45-8.74,73.31,1.47,8.47,3.21,15.04,6.5,20.7,10.32,3.72,2.53,7.32,5.5,10.69,8.85,8.1,8.05,15.14,18.45,20.93,30.92,1.8,3.88,3.47,7.9,5.08,11.8,3.3,7.97,6.71,16.21,11.44,23.57,2.35,3.65,5.17,7.34,8.63,11.26Z"/>
      <path class="cls-3" d="M355.46,184.48c1.74,0,3.46-.18,5.09-.53,3.47-.76,8.19-2.67,10.93-7.46.73-1.27.94-2.31.64-3.18-.29-.83-1.15-1.36-2.21-1.35-1.06.01-1.91.57-2.17,1.41l.12.04c.25-.79,1.05-1.31,2.05-1.32,1-.01,1.82.48,2.09,1.26.29.83.08,1.84-.63,3.08-4.75,8.29-16.32,9.48-24.8,6.38-13.76-5.02-22.61-18.29-29.46-30.61-3.62-6.52-9.58-15.09-15.93-22.94-7.21-8.91-14.15-15.91-19.53-19.72h-.02s-.06.1-.06.1h.01c12.44,8.81,28.84,30.79,35.42,42.62,6.86,12.34,15.73,25.63,29.53,30.67,2.82,1.03,5.91,1.56,8.93,1.56Z"/>
      <path class="cls-3" d="M166.71,243.96l.08-.1c-8.21-6.32-14.73-14.04-18.37-21.74-1.7-3.61-3.05-7.41-4.34-11.09-7.49-21.22-16.82-47.62-10.81-72.52l.25-1.05c1.68-6.97,3.26-13.56,6.38-19.89,3.47-7.05,7.92-13.4,13.23-18.89,5.42-5.6,16.03-9.11,23.71-9.68v-.12c-7.71.57-18.36,4.09-23.8,9.72-5.32,5.5-9.78,11.86-13.25,18.92-3.13,6.34-4.71,12.93-6.39,19.91l-.25,1.05c-2.62,10.86-2.58,22.82.12,36.58,2.35,11.97,6.4,23.86,10.69,36.02,1.3,3.68,2.64,7.49,4.35,11.1,3.64,7.72,10.18,15.45,18.4,21.79Z"/>
      <path class="cls-15" d="M141.8,335.35s.03-.04.04-.04c0,0,0,0,0,.01l.11-.06c-.04-.07-.09-.08-.11-.08-.05,0-.11.04-.15.11l.11.06Z"/>
      <path class="cls-15" d="M141.77,335.57s.02,0,.04,0h.07s-.02-.08-.02-.08c0-.03-.02-.06-.03-.09,0-.03-.02-.06-.03-.09l-.04-.14-.07.13c-.04.07-.07.17-.02.23.01.02.04.05.1.05Z"/>
      <path class="cls-3" d="M141.69,335.34l.12-.04c-2.12-7.07-7.55-15.9-13.21-21.48l-.09.09c5.65,5.57,11.07,14.38,13.18,21.43Z"/>
      <path class="cls-15" d="M266.9,388.21c1.5,0,3.94-.47,5.11-.74,4.52-1.04,8.63-3.31,11.33-4.93,2.14-1.29,4.35-2.75,5.95-4.77,2.82-3.55,3.39-8.35,3.58-11.66.03-.5.2-2.15,1.26-2.16v-.12c-1.17.02-1.35,1.75-1.38,2.28-.18,3.29-.75,8.06-3.55,11.58-1.59,2-3.78,3.46-5.92,4.74-2.69,1.61-6.79,3.88-11.29,4.92-1.27.29-4.04.82-5.46.72-.02,0-.04,0-.06,0-.02,0-.04,0-.06,0v.12s.03,0,.05,0c.02,0,.04,0,.06,0,.12,0,.25.01.39.01Z"/>
    </g>
    <path class="cls-20" d="M294.67,349.47c-1,0-2.65.98-3.24,2.62-.14.38-.22.8-.22,1.25,0,1.92.13,3.37.13,4.69h.04c1.41-4.71,4.3-6.31,4.3-6.35,0-1.25.09-2.21-1-2.21Z"/>
    <path class="cls-11" d="M296.28,357.91c0,7.31-16.75,17.03-41.71,17.03s-40.29-10.6-40.29-17.91,15.33-8.55,40.29-8.55,41.71,2.12,41.71,9.43Z"/>
    <g>
      <path class="cls-10" d="M298.94,341.42c.19.04.39.04.59.03.1,0,.37,0,.48.2.19.23.14.89.06,1.3-.09.41-.22.81-.37,1.2-.6,1.57-1.43,3.04-2.24,4.57-.3.57-.78,1.44-1.15,2.33-.33.91-.66,1.8-.86,2.32-.76,2.01-1.58,4.06-2.43,6.14-.42,1.04-.85,2.09-1.28,3.14-.43,1.06-.89,2.1-1.24,3.18-.72,2.17-1.33,4.37-2.1,6.49-.38,1.06-.79,2.1-1.27,3.1-.48.99-1.03,1.96-1.73,2.78-.18.2-.45.5-.82.78-.36.29-.82.52-1.28.64-.12.02-.23.07-.34.07-.11,0-.22.02-.32.03-.85.03-1.91-.44-2.26-.52-.19-.04-.39-.08-.6-.12-.93-.16-2.05-.45-2.99-.73.49-.25,6.14-13.55,7.96-17.96.9-2.2,1.41-3.69,2.13-5.95.73-2.28,3.03-4.77,3.86-7.01,1.04-2.82,2.18-3.46,2.86-6.39.05-.22.1-.44.06-.66-.04-.24-.1-.54-.31-.64-2.13-1.04-4.59-2.48-6.94-2.31-.11,0-.22.04-.32.09.2-.24.41-.46.67-.62.17-.1.37-.14.55-.09.19.03.37.06.55.11.72.2,1.4.5,2.07.81,1.33.63,2.62,1.31,3.92,1.9,1.3.6,2.6,1.12,3.91,1.49.38.11.78.2,1.16.29Z"/>
      <path class="cls-12" d="M293.35,339.74c.21.1.27.4.31.64.04.22-.01.44-.06.66-.68,2.93-1.82,3.56-2.86,6.39-.83,2.25-3.13,4.73-3.86,7.01-.73,2.26-1.23,3.75-2.13,5.95-1.81,4.42-7.47,17.71-7.96,17.96,0,0-.01,0-.02,0-1.24-.38-2.63-.64-3.87-1.02-.57-.17-1.17-.36-1.59-.81-.82-.87-.58-2.31-.2-3.48.8-2.42,2.03-4.66,3.15-6.95,1.52-3.09,2.86-6.27,4.02-9.52.85-2.4,1.6-4.85,2.64-7.18,1.3-2.93,3.07-5.72,3.67-8.87.15-.78.24-1.61.71-2.24.22-.29.48-.62.8-.78.1-.05.21-.08.32-.09,2.34-.17,4.81,1.26,6.94,2.31Z"/>
      <g>
        <path class="cls-2" d="M295.05,337.8c.8.36,1.6.71,2.35,1.15,1,.58,3.13,1.68,2.31,3.24-.08.15-.2.3-.36.35-.09.02-.17.02-.26.01-2.05-.17-4-.91-5.91-1.64-2.16-.83-4.33-1.66-6.49-2.48-.35-.13-.74-.31-.85-.67-.06-.2-.03-.42.05-.62.18-.48.61-.84,1.08-1.03.47-.19.98-.23,1.47-.22,2.32.03,4.51.98,6.62,1.92Z"/>
        <path class="cls-8" d="M287.86,337.4c.12-.18.33-.24.5-.27,1.42-.27,2.78.3,4.09.84.53.22,1.08.45,1.63.62.31.1.63.17.94.25.45.11.91.23,1.35.39.87.33,1.46.75,1.75,1.26.15.26.15.52.02.74-.17.28-.56.46-.98.43h0c-.45-.02-.84-.23-1.23-.44l-.15-.08c-1.14-.6-2.4-.97-3.62-1.33-1.29-.38-2.62-.77-3.81-1.43-.22-.12-.49-.35-.55-.62-.02-.1-.01-.2.02-.28.01-.03.03-.06.05-.09ZM297.93,341.11c.08-.14.08-.31-.03-.49-.26-.45-.82-.86-1.63-1.16-.43-.16-.88-.27-1.33-.38-.31-.08-.64-.16-.95-.26-.56-.17-1.11-.4-1.65-.63-1.28-.53-2.61-1.09-3.96-.83-.12.02-.27.06-.34.16-.04.06-.05.11-.03.18.04.18.25.37.44.47,1.17.65,2.49,1.03,3.77,1.41,1.23.36,2.51.74,3.66,1.35l.15.08c.36.19.73.39,1.13.41h0c.34.02.64-.11.77-.32Z"/>
        <path class="cls-8" d="M290.44,338.22s0,.1.03.14c.87.76,2.02,1.03,3.13,1.28.89.21,1.82.42,2.59.89.05.03.13.01.16-.04.03-.06.02-.13-.04-.17-.8-.49-1.74-.71-2.65-.92-1.13-.26-2.2-.51-3.03-1.23-.05-.04-.12-.04-.17.02,0,.01-.02.02-.02.03Z"/>
      </g>
      <path class="cls-2" d="M286.91,335.99c.53-.22,1.09-.24,1.52-.23,2.38.03,4.66,1.04,6.66,1.93.79.35,1.6.71,2.36,1.15l.18.1c1.05.6,3,1.72,2.17,3.3-.11.22-.27.36-.43.41-.11.03-.22.02-.3.02-2.08-.17-4.05-.92-5.94-1.65l-6.49-2.48c-.38-.14-.79-.33-.92-.74-.08-.26-.02-.53.05-.7,0-.01,0-.02.01-.03.19-.46.6-.85,1.13-1.07ZM297.52,339.16l-.18-.1c-.75-.44-1.56-.8-2.34-1.14-1.99-.88-4.24-1.89-6.57-1.91-.61,0-1.05.06-1.43.21-.48.2-.85.55-1.01.96-.05.14-.1.35-.04.54.1.31.46.47.78.6l6.49,2.48c1.88.72,3.83,1.47,5.88,1.64.09,0,.16.01.22,0,.13-.04.23-.18.29-.29h0s.05-.1.07-.14c.53-1.3-1.14-2.25-2.15-2.83ZM299.71,342.19h0s0,0,0,0Z"/>
    </g>
    <g>
      <path class="cls-12" d="M281.47,340.01c-.11-.16-.19-.34-.25-.53-.04-.09-.15-.34-.37-.37-.28-.08-.87.21-1.22.45-.35.24-.66.51-.97.8-1.21,1.16-2.26,2.49-3.36,3.83-.41.5-1.03,1.27-1.71,1.96-.71.65-1.41,1.3-1.81,1.69-1.56,1.48-3.14,3.03-4.74,4.61-.8.79-1.6,1.59-2.41,2.39-.81.8-1.59,1.63-2.46,2.37-1.72,1.49-3.52,2.91-5.18,4.43-.83.76-1.63,1.54-2.37,2.37-.73.83-1.41,1.7-1.89,2.67-.12.24-.29.61-.4,1.06-.13.44-.17.96-.1,1.42.02.12.03.23.07.34.03.11.07.21.1.31.3.79,1.14,1.59,1.35,1.88.11.16.22.33.34.51.51.8,1.21,1.71,1.82,2.48.05-.55,10.13-10.89,13.51-14.26,1.68-1.68,2.86-2.72,4.67-4.26,1.82-1.55,3.23-4.64,4.99-6.26,2.21-2.05,2.35-3.35,4.79-5.1.18-.13.37-.26.59-.31.23-.06.53-.12.71.04,1.78,1.56,4.05,3.28,4.8,5.51.04.11.05.22.04.33.14-.27.27-.56.31-.86.03-.19-.01-.4-.13-.54-.1-.16-.19-.32-.32-.46-.46-.59-1-1.1-1.54-1.6-1.09-.99-2.22-1.91-3.27-2.88-1.05-.97-2.04-1.97-2.89-3.04-.25-.31-.48-.64-.72-.96Z"/>
      <path class="cls-10" d="M285.17,344.51c-.18-.15-.47-.1-.71-.04-.21.05-.4.18-.59.31-2.44,1.75-2.59,3.05-4.79,5.1-1.76,1.63-3.16,4.71-4.99,6.26-1.81,1.54-2.99,2.58-4.67,4.26-3.38,3.38-13.46,13.72-13.51,14.26,0,0,0,.01,0,.02.83,1,1.6,2.18,2.43,3.18.38.46.79.94,1.36,1.15,1.12.42,2.36-.35,3.29-1.16,1.92-1.67,3.52-3.67,5.2-5.59,2.27-2.6,4.68-5.06,7.24-7.37,1.89-1.71,3.86-3.34,5.61-5.2,2.2-2.33,4.09-5.04,6.77-6.8.66-.44,1.39-.84,1.8-1.52.19-.31.39-.68.41-1.03,0-.11,0-.22-.04-.33-.75-2.23-3.02-3.95-4.8-5.51Z"/>
      <g>
        <path class="cls-10" d="M286.31,342.2c-.64-.6-1.27-1.2-1.97-1.73-.92-.7-2.76-2.24-3.88-.88-.11.13-.2.3-.18.47.01.09.05.17.09.25.95,1.83,2.38,3.34,3.79,4.82,1.6,1.68,3.2,3.36,4.79,5.03.26.27.57.56.95.53.21-.02.4-.13.56-.28.37-.36.54-.89.54-1.39,0-.5-.16-.99-.36-1.45-.92-2.13-2.64-3.78-4.33-5.36Z"/>
        <path class="cls-4" d="M289.39,348.76c-.07.07-.15.11-.25.13-.27.05-.6-.11-.79-.27-1.07-.85-1.94-1.93-2.79-2.97-.8-.99-1.63-2.01-2.62-2.83l-.13-.11c-.34-.27-.69-.56-.88-.96h0c-.18-.38-.17-.81.02-1.07.15-.21.4-.3.69-.27.58.07,1.2.45,1.84,1.13.32.34.61.73.88,1.1.19.26.39.52.59.77.37.44.79.86,1.2,1.26,1.01,1,2.05,2.03,2.36,3.45.04.17.06.38-.06.56-.02.03-.04.05-.06.08ZM282.14,341.65h0c.17.36.5.63.82.89l.13.11c1.01.83,1.84,1.86,2.65,2.86.84,1.03,1.7,2.1,2.75,2.94.16.13.42.25.6.22.07-.01.12-.04.15-.1.07-.1.05-.26.02-.38-.29-1.35-1.31-2.36-2.29-3.34-.41-.41-.84-.83-1.21-1.28-.21-.25-.41-.52-.6-.78-.27-.36-.55-.74-.87-1.08-.59-.63-1.18-1-1.7-1.06-.21-.02-.37.03-.46.17-.14.19-.14.53,0,.83Z"/>
        <path class="cls-4" d="M287.7,346.62s-.09.05-.14.02c-1.04-.51-1.73-1.47-2.39-2.39-.53-.74-1.09-1.52-1.82-2.04-.05-.04-.06-.11-.02-.17.04-.05.11-.07.17-.03.76.55,1.33,1.34,1.87,2.1.68.94,1.31,1.83,2.3,2.32.06.03.08.1.05.16,0,.01-.01.02-.02.03Z"/>
      </g>
      <path class="cls-4" d="M290.57,350.46s-.02.02-.03.03c-.14.13-.36.29-.63.31-.43.04-.76-.27-1.04-.56l-4.79-5.03c-1.4-1.47-2.85-2.99-3.81-4.85-.04-.07-.09-.17-.1-.28-.02-.18.05-.37.21-.56,1.13-1.37,2.92,0,3.88.74l.16.13c.7.53,1.35,1.15,1.98,1.74,1.6,1.51,3.41,3.21,4.35,5.4.17.39.37.92.37,1.49,0,.57-.19,1.1-.55,1.46ZM280.66,339.55s-.07.07-.11.12h0c-.08.1-.17.24-.15.37,0,.07.04.13.08.21.95,1.83,2.38,3.34,3.78,4.8l4.79,5.03c.24.25.53.52.85.49.2-.02.37-.14.48-.25.31-.3.5-.78.5-1.3,0-.41-.11-.85-.35-1.4-.93-2.14-2.72-3.84-4.3-5.33-.62-.59-1.27-1.19-1.96-1.72l-.17-.13c-.93-.71-2.45-1.89-3.44-.9ZM280.46,339.59h0s0,0,0,0Z"/>
    </g>
    <g>
      <path class="cls-6" d="M240.79,362.6c0-.86-.16-1.89-.26-2.84-.33-3.19-.71-6.37-.98-9.57-.39-4.49-.72-9-1.02-13.49-.08-1.2-.13-2.41-.17-3.56-.02-.58-.03-1.13-.07-1.71-.05-.56-.13-1.11-.25-1.62-.36-1.17-.85-2.18-1.42-3.06-.57-.87-1.23-1.62-2-2.21-.27-.2-.67-.45-1.04-.54-.18-.05-.36-.06-.48-.03-.04,0-.07.02-.09.03-.03,0-.05,0-.08,0h-.08c-.17-.11-.5-.23-.77-.21-1.74.1-3.53.2-5.24.41l-2.41.3c-.06,0-.16.03-.22.05-.14.05-.26.12-.37.2-.43.31-.76.7-1.07,1.1-.3.41-.56.83-.79,1.27-.93,1.77-1.43,3.69-1.7,5.69-.05.32-.04.74-.02,1.13.02.4.06.81.1,1.19l.56,5.23c.6,6.21.8,12.56,1.9,18.61.1.54.13,1.33.1,1.87-.12,2.43.05,4.85.43,7.4.15.98.18,2.1.25,3.15.05.8.03,1.61.09,2.4l.54,6.61c.02.24.06.54.13.79.14.53.41,1.02.77,1.43.36.41.8.74,1.3.96.5.22,1.05.32,1.59.3.25,0,.45-.03.67-.05,0,0,8.01-.77,9.76-.92.86-.08,1.68-.47,2.32-1.06.63-.6,1.08-1.39,1.22-2.27.08-.43.06-.9.03-1.29,0,0-.17-2.84-.23-3.65-.31-4.01-1.03-7.97-.99-12.05Z"/>
      <g>
        <path class="cls-2" d="M230.84,312.53l-.44-4.09c-.02-.16-.02-.32-.07-.5-.05-.17-.15-.33-.27-.46-.13-.13-.28-.22-.45-.28-.17-.06-.36-.05-.52-.04-1.25.11-2.48.09-3.76.24-.52.08-.94.53-.98,1.06,0,.14,0,.25,0,.36l.29,4.38c0,.07.02.15.04.22.04.14.11.28.2.4.18.24.45.41.74.46.07.01.15.02.22.02,0,0,2.84-.29,3.62-.38.1-.01.28-.07.28-.14,0,0,0-.02-.02-.02h.01s0,0,.01,0c0,0,0,.02,0,.03-.01.09.07.14.21.13.14,0,.31-.07.46-.18.14-.1.25-.24.33-.39.07-.13.11-.28.12-.43,0-.07,0-.15,0-.22l-.02-.18ZM225.84,314.08s.03,0,.05,0c-.02,0-.03,0-.05,0Z"/>
        <circle class="cls-4" cx="226.87" cy="309.09" r=".91"/>
      </g>
      <g>
        <path class="cls-2" d="M231.82,313.57c-.2-.47-.69-.75-1.16-.77-.25,0-.44.04-.66.05-.21.01-.43.02-.64,0-1.02.27-2.09,0-3.11.27-.06.02-.14,0-.21,0,0,0-.88.02-.99.03-.13,0-.26.04-.38.08-.31.12-.57.36-.73.65-.08.15-.13.31-.15.47-.02.17,0,.34,0,.47.05.56.09,1.12.11,1.68.01.4.05.78.1,1.17l.02.14c.01.06.02.11.03.17.03.11.07.21.13.31.11.2.27.36.45.48.24.15.52.26.82.25.28-.01.53-.05.78-.15.05-.02.14,0,.2,0,.25,0,.51,0,.76-.02.26,0,.52-.06.77-.03.79.09,1.57-.04,2.35-.12.16-.02.31-.07.46-.13.05-.02.12-.09.11-.11,0,0-.01-.02-.02-.03h.01s.01,0,.02,0c0,.02-.01.03-.01.05,0,.05.08.09.18.11.09.01.2,0,.27-.04.33-.15.51-.47.62-.76.08-.2.1-.41.09-.62-.02-.2-.04-.39-.04-.59-.02-.5-.03-1-.04-1.49l-.02-.75c0-.13-.01-.24-.02-.38-.01-.14-.05-.29-.11-.42Z"/>
        <path class="cls-5" d="M231.77,313.45c-.26-.45-.72-.64-1.15-.65-.25,0-.44.04-.66.05-.21.01-.43.02-.64,0-1.02.27-2.09,0-3.11.27-.06.02-.14,0-.21,0,0,0-.88.02-.99.03-.13,0-.26.04-.38.08-.31.12-.53.35-.68.65-.01.03,1.85-.05,3.94-.17,1.36-.08,2.86-.18,3.89-.27Z"/>
      </g>
      <g>
        <path class="cls-2" d="M233.78,317.96c-.04-.18-.11-.36-.21-.53-.16-.28-.42-.5-.7-.66-.29-.14-.61-.22-.92-.2-.6.04-1.16.12-1.76.1-1.4.31-2.85.06-4.24.37-.09.02-.19,0-.28.01,0,0-1.2.05-1.35.06-.17.01-.34.05-.49.11-.41.15-.76.45-.97.83-.11.19-.18.4-.22.61-.02.11-.03.21-.03.32s0,.21.02.31c.07.76.13,1.53.16,2.29.02.54.07,1.06.14,1.6.04.3.16.58.33.82.17.24.4.43.66.56.34.17.73.27,1.11.23.36-.03.71-.07,1.06-.17.07-.02.18,0,.28,0l1.03-.04c.35-.02.72-.08,1.05-.06,1.08.07,2.14-.08,3.21-.19.21-.02.43-.08.63-.14.07-.02.17-.09.15-.12,0,0-.01-.02-.02-.03h.02s.01,0,.02,0c-.01.02-.02.03-.02.05,0,.05.11.09.23.1.12,0,.26-.02.35-.06.43-.19.7-.58.86-.96.11-.26.17-.54.16-.82-.02-.28-.04-.54-.06-.81-.04-.68-.14-3.31-.14-3.31-.01-.09-.02-.19-.04-.28Z"/>
        <path class="cls-5" d="M225.6,317.86c1.22-.02,5.21-.39,5.95-.44.93-.07,1.91-.13,1.89-.16-.16-.28-.3-.33-.58-.48-.29-.14-.61-.22-.92-.2-.6.04-1.16.12-1.76.1-1.4.31-2.85.06-4.24.37-.09.02-.19,0-.28.01,0,0-1.2.05-1.35.06-.17.01-.34.05-.49.11-.41.15-.65.28-.86.66-.09.15,1.7,0,2.65-.01Z"/>
      </g>
    </g>
    <g>
      <g>
        <path class="cls-7" d="M238.23,336.7s.09,18.81.1,19.42c0,.08,0,.18,0,.25-.04.77,0,1.53,0,2.3,0,.67.03,4.33.04,5.48,0,.5,0,1.01.02,1.5,0,.09,0,.23,0,.31-.04.49,0,1-.02,1.49,0,.26.01,2.31.01,2.31,0,.31,0,.6.01.95.02.38.16.83.36,1.1-.04-.1-.1-.21-.14-.32-.02-.06-.04-.12-.05-.17,0-.06-.01-.11,0-.16.12.36.28.65.52,1.05-.01,0-.03,0-.04,0l.1.15c-.09-.09-.19-.18-.29-.31.08.14.18.26.28.38.11.11.21.23.33.33.26.23.54.44.87.58.29.12.58.19.89.22.23.03.48.06.7.06.41,0,.83,0,1.24,0,.28,0,.56-.02.84-.03.33,0,.68-.02.99,0,.28.01,2.29.01,2.6.02.1,0,.2-.01.3-.02h0c.7.04,1.33.03,1.98,0l.38.04.24-.03c.22,0,2.5.03,3.41.02.73,0,1.47.02,2.19-.02.59.03,1.19,0,1.8,0,.27,0,.54,0,.82,0,.29-.01.58-.05.86-.14.07-.02.15-.05.22-.08.07-.03.15-.05.21-.08.71-.29,1.28-.88,1.57-1.56.1-.21.18-.45.23-.68.03-.12.04-.24.06-.36,0-.12.02-.25.02-.37v-.7c0-.47,0-.96.01-1.41.01-.46-.02-.86-.02-1.3v-1.85s0-.09,0-.14v.04s0-.05,0-.05h0c-.02-.38,0-.77,0-1.19-.02-.36,0-.76-.01-1.14,0-.41,0-.83,0-1.24,0-.42,0-.83,0-1.25-.01-.57-.02-1.17,0-1.73.01-.49,0-.93,0-1.4v-.3c-.08-.32-.1-.77-.04-1.42l.06.03v-.23s-.06-.07-.06-.07l.04-.06-.03-.41.06-.31v-2.1s-.01,0-.02,0l-.04,1.76-.05-.1s0-1.31,0-1.89c.02-.29.04-.62.04-.97,0,.08.02.15.02.23l.03.81.03-.83-.03-.35c.04-1.09,0-2.13-.02-3.17l-.06.13v-.14l.02-.25v.03s0-.05,0-.05h0s.03-.33.03-.33l-.05-.13v-1s0-.09.01-.15c.05.31,0,.74.04,1.08.02-.54.01-1.06-.02-1.45l.06-.15-.07-.3c.03-.31.07-.67,0-1l.02-.25-.04-.16s0-.59.01-.83h-.01v-4.63s.04-.66.04-.66l-.04-.02v-.13l.03-.12-.03-.16v-.09c.03-.09.06-.23.05-.54l-.05.21s0-.59,0-.59c0-.34-.06-.66-.16-.97,0,0,0-.01,0-.02-.13-.4-.29-.82-.59-1.11,0-.01-.02-.02-.02-.03l-.02-.12c-.08-.08-.14-.12-.19-.17.01.03.03.06.06.1-.41-.5-.9-.94-1.4-1.32-.58-.44-1.18-.86-1.8-1.26l.02-.03-.13-.04c-.88-.57-1.79-1.11-2.67-1.68-.11-.07-.21-.14-.31-.21,0,0,0,0,0,0-.07-.05-.13-.1-.2-.15,0-.01-.02-.02-.03-.04-.04-.03-.07-.06-.1-.08-.04-.04-.09-.09-.13-.13-.02-.03-.04-.06-.06-.11,0-.02-.02-.05-.03-.07-.06-.16-.11-.4-.16-.64h-4.83c-.46,0-.93-.02-1.38-.05-.25-.02-.89-.16-.95-.16-.04,0-.09,0-.14,0-.03.18-.06.39-.11.6-.04.17-.09.31-.16.41-.02.02-.03.04-.06.07-.03.03-.06.06-.09.09-.06.06-.14.12-.22.17-.16.11-.35.22-.55.33-.2.11-.4.22-.61.32-.83.42-1.7.82-2.55,1.29-.88.48-1.76,1.02-2.52,1.75-.38.36-.72.78-.98,1.25-.27.47-.43,1.01-.49,1.55-.04.46-.01.85-.01,1.25ZM261.82,358.3c0-.23-.02-.46.01-.67-.03.2.03.48-.01.67ZM261.84,358.54l-.02,1.15c-.03-.47-.03-.64.02-1.15ZM261.85,369.33l.02.97c-.05-.37-.06-.65-.02-.97ZM261.79,366.59c.04.29.06.5,0,.75v-.75ZM261.79,363.22c.04.21.05.61.05,1.51l-.05-.09v-1.42ZM261.82,348.14v-.02s0-.02,0-.02v.04ZM261.83,349.49v.15s-.02-.03-.02-.03l.02-.12ZM261.84,348.75v.14s0,0,0,0v-.14s0,0,0,0ZM261.79,350.31c0-.13,0-.25.02-.39.06.32.03.63.02.92-.01,0-.02-.02-.04-.02v-.51ZM261.49,371.8c.04-.13.09-.23.13-.33.04-.11.08-.21.13-.34-.01.13-.04.24-.08.35-.03.11-.1.21-.17.33ZM259.87,373.28s.07-.02,0,0c.06-.01.04,0,0,0ZM259.48,373.4s.06-.05.14-.08.18-.06.28-.09l-.06.06-.18.06c-.06.02-.12.03-.18.05ZM258.61,373.48c.09,0,.19-.02.29-.03l.05.02c-.1,0-.2.03-.3.03l-.04-.02ZM257.45,373.52h.16s.05,0,.05,0l-.12.02-.09-.02ZM255.7,373.52l.33-.02s-.04.04-.33.02ZM254.92,373.54q.4-.03.6,0h-.6ZM254.56,373.53h.03s0,0,0,0h-.04ZM253.7,373.49s0,0,.01-.01h.23s0,.01-.01.02h-.23ZM253.39,373.52h.48c-.19.04-.32.04-.48,0ZM252.41,373.52h.25s-.01.01-.02.02l-.24-.02ZM251.54,373.43h.29s-.28.01-.28.01h-.02ZM250.59,373.54l.16-.04h.08s-.16.05-.16.05h-.07ZM250.26,373.48c.2.01.23.02.08.04l-.08-.04ZM249.29,373.52h.81q-.5.05-.81,0ZM248.91,373.52h.09s-.09.01-.09.01c0,0,0,0,0-.01ZM248.61,373.44s0,0,0-.01h.32,0s-.32.01-.32.01ZM248.32,373.54s.08-.01.13-.02c0,0,.03,0,.05,0l-.1.02h-.07ZM247.32,373.55l.47-.03.13.07c-.22,0-.45.01-.6-.04ZM245.93,373.55l.16-.02h.05s-.17.03-.17.03h-.04ZM243.58,373.51c.39-.06,1.2-.06,1.67,0-.59.03-1.13-.01-1.67,0ZM240.95,373.48c.13,0,.24,0,.35.04.11.02.21.03.3.04-.1,0-.2,0-.31-.02-.11-.02-.22-.03-.34-.06ZM240.01,372.99c.16.07.3.13.43.19,0,0,.23.11.33.16-.25-.08-.49-.17-.76-.35ZM239.87,372.99c.08.03.15.06.18.13-.07-.05-.13-.09-.18-.13ZM239.4,372.6l.22.2c.07.06.14.11.21.16-.07-.03-.14-.08-.22-.14-.07-.07-.15-.15-.21-.22ZM239.19,372.39s.02.02,0,0h0ZM238.47,364.86c-.04-.41,0-.62.03-.93.05.43-.03.58-.03.93ZM238.45,370.72c0-.11.02-.2.04-.35v.33s.05.25.05.25c0,.04,0,.08,0,.13-.04-.11-.06-.22-.09-.35ZM238.47,368.54h-.01s0-.32,0-.32h.01s0,.32,0,.32ZM238.44,369.14q.03.18,0,.42v-.42ZM238.44,367.81l.02-.52.06.52h-.07ZM238.39,353.37s0-.07.02-.22v.47c-.01-.15-.02-.2-.02-.25ZM238.38,352.87s0-.04,0-.04c0,0,.01,0,.02,0v.08s-.02-.05-.02-.05Z"/>
        <path class="cls-12" d="M240.3,367.13c.04-1.72.05-3.47.03-5.2-.05-4.38-.18-8.75-.17-13.12,0-3.75.2-7.49.03-11.27,0-.16.04-.34.11-.49.07-.16.18-.29.3-.4.13-.11.28-.19.44-.24.16-.05.34-.05.47-.04.57.01,1.14.01,1.72.01,1.14,0,2.29-.03,3.44-.06,2.29-.05,4.58-.1,6.87.02.28.01.61,0,.92-.01l4.37-.06c.31.02.6.16.81.39.21.22.34.53.35.83.01,4.96-.05,9.91.02,14.84.05,3.5-.04,6.83-.11,10.25-.05,2.26.07,4.63-.11,6.88-.02.24.03.59.03.89,0,.28.02.55.01.84,0,.31-.16.61-.41.81-.12.1-.27.17-.42.21-.08.02-.15.03-.23.04-.08,0-.14,0-.21,0h-.83c-1.13.02-2.32-.01-3.38.04-3.44.19-6.91.11-10.37.09-.69,0-1.39-.06-2.05-.11-.24-.02-.56-.1-.52-.13.01-.01.03-.02.05-.03h-.06s-.04,0-.06,0c.04.02.07.04.06.06,0,.03-.09.07-.23.07-.14,0-.32-.04-.5-.16-.18-.11-.34-.29-.43-.5-.05-.1-.07-.21-.09-.31,0-.05,0-.1-.01-.15v-.11c.02-1.31.13-2.57.16-3.88Z"/>
        <g>
          <path class="cls-5" d="M254.98,361.92s-.1.07-.15.09c-.05.02-.11.04-.17.04-.16.01-.27-.02-.54-.01-.26,0-.28-.09-.48-.14-.29-.08-.55.02-.99,0-.18-.01-.36,0-.54-.03-.15-.02-.29.02-.43.08-.38.18-.52.46-.35.87-.56-.02-1.62,1.24-2.06,1.63-.06.06-.24.2-.25.2.29-.7.93-1.66,1.09-1.97.08-.14.39-1.08.51-1.44.06-.18.13-.41.29-.61-.01,0-.03,0-.04,0-.13.14-.23.4-.29.57-.12.33-.51,1.36-.6,1.51-.07.12-.14.23-.22.35-.15.23-.29.47-.42.71-.22.39-.37.72-.5,1.04,0,0-.01,0-.01,0,.03-.26.13-.59.1-.88-.01-.13-.03-.25-.05-.38-.03-.2-.08-.39-.15-.58,0,0,.01,0,.02-.01,0,0,.02-.01.03-.02.1-.19.07-.03.15-.64.05-.35.01-.42,0-.69-.02-.26-.07-.66-.2-.91-.02-.03-.3-.73-.53-.98-.05-.05-.09-.12-.13-.18-.3-.46-.22-.71-.32-.7-.08,0-.1.33-.17.73-.12.68-.46.98-.5,1.23-.04.23-.02.32.4,1.38.04.1.08.2.15.28.03.04.06.09.1.13.07.1.17.18.27.24.2.13.32.17.58.19.04,0,.08,0,.11-.02.1.3.14.64.16.95.02.32-.17.81-.06.99-.26.65-.55,1.12-.92,1.79-.27.49-.01.34.36-.33.46-.83.54-1.15.74-1.67.24-.1.51-.38.69-.61.14-.18,1.25-1.24,1.67-1.28.04.09.1.17.16.25.12.13.12.14.31.09.77-.23,1.28.07,1.62.14.49.1.77-.16,1.14-.52.29-.28.56-.59.93-1.1.04-.04.07-.08.1-.13.28-.37-.52.24-.64.33Z"/>
          <path class="cls-9" d="M250.98,360.89c.08.08.16.04.3,0,.14-.04.28-.1.4-.19.04-.03.1-.06.15-.08.21-.09.27-.19.42-.33.12-.12.23-.25.33-.39.08-.12.15-.25.24-.37.07-.11.25-.59.22-1.06,0-.11.04-.24-.1-.33-.13-.48-.3-.59-.3-.68,0-.07.04-.18-.05-.24-.13-.08-.25.05-.34.09-.13.05-.17-.07-.22-.14-.11-.14-.29-.17-.45-.12-.05.02-.12.09-.12.09-.03.03-.1.06-.12.1-.02.02-.04.05-.06.08-.63.12-.9.35-1.15.65-.24.3-.39.65-.44,1.02-.03.22-.02.45.02.67.03.16.07.26.24.52.16.25.17.21.21.27.07.1.07.19.29.37.18.16.35.17.47.11.01,0,.02-.01.04-.02,0,0,.01,0,.02-.01Z"/>
        </g>
      </g>
      <g>
        <path class="cls-13" d="M248.29,319.89h4.75c.38,0,.68.31.68.68v1.07h-1.03c-.84,0-1.67,0-2.48.11-.33.05-.73.04-1.1.04h-1.5s0-.02,0-.04v-1.18c0-.38.31-.68.68-.68Z"/>
        <path class="cls-12" d="M248.95,327.84c-.47,0-.96-.02-1.42-.05-.26-.02-.92-.16-.98-.16-.05,0-.1,0-.15,0-.12-.02-.25-.06-.36-.15-.16-.13-.29-.36-.27-.62.04-.64.12-1.28.12-1.92v-2.1c0-.12-.01-.23.01-.37.03-.13.08-.25.17-.36.08-.1.2-.18.32-.24.12-.05.27-.08.39-.08h2.16c.38,0,.8,0,1.13-.04.83-.12,1.69-.11,2.55-.11h1.65c.06,0,.17,0,.26.01.09.02.18.04.27.09.17.08.32.21.41.37.1.16.15.34.16.52,0,0-.01,4.24-.02,4.29,0,.1-.03.2-.06.29-.14.37-.54.64-.95.63h-5.39Z"/>
        <g>
          <path class="cls-12" d="M249.11,318.92c.07-.54.12-1.1-.19-1.49-.14-.18-.33-.3-.54-.42-.1-.06-.21-.13-.31-.2-.1-.07-.2-.2-.2-.34,0-.07.03-.14.09-.18.07-.05.15-.05.2-.05,2.58-.03,10.27.61,10.89.68.16.02.27.11.31.25.09.41-.48,1.22-.59,1.29-.11.07-.23.08-.33.08-.07,0-.24,0-.5-.02-1.04-.06-3.48-.18-4.58,0-.32.05-.68.11-.96.3-.3.2-.51.55-.61.99,0,.02,0,.05-.01.07h-2.82s.13-.96.13-.96Z"/>
          <path class="cls-13" d="M250.16,318.44c-.33-.05-.66-.12-.99-.17,0-.07,0-.14-.01-.21,1.34.04,2.68.21,4,.5-.21.04-.42.09-.6.19-.8-.09-1.6-.18-2.4-.31Z"/>
          <ellipse class="cls-13" cx="258.18" cy="317.71" rx=".58" ry=".35"/>
        </g>
      </g>
    </g>
    <path class="cls-1" d="M295.42,362.53c0-.3,1.86-6.32.35-6.32-.58.9-.96,1.36-1.51,2.52,0,.03-1.29,2.68-1.43,3.28-.14.43-.87,2.39-1.95,2.99-.94.53-2.39.66-3.66.89-10,1.8-20.27,2.89-30.53,3.21-8.22.26-16.3.3-24.44-.4-2.17-.18-4.35-.45-6.37-1.04-2.06-.6-5.09-1.7-7.22-4.46-.86-.92-2.28-4.16-2.43-4.86-.64-.63-1.26-1.21-1.85-1.81-.29.48-.29,1.15-.35,1.92-.07.81.55,2.73.55,3.03,0,.2.03.39.08.59-.17.49-.16,1.01-.15,1.46,0,.45.02.9.03,1.35-.56,3.72.71,8.19,2.14,11.14,1.16,2.4,2.78,4.45,4.83,6.09,6.07,4.87,15.37,5.76,21.84,6.01.68.03,7.85.19,10.51.19,7.27,0,13.92-.26,19.74-.56,4.87-.24,14.55-4.74,17.27-8.02,2.44-2.94,3.97-6.64,4.43-10.7.17-1.49.19-3.01.22-4.48,0-.45.01-.97-.15-1.46.05-.2.08-.4.08-.59Z"/>
  </g>
</svg>